<svg width="225" height="78" viewBox="0 0 225 78" fill="none" xmlns="http://www.w3.org/2000/svg">
<g id="Aget">
<g id="text">
<path id="Vector 29" d="M221.435 25H192.478V31.2609H204.217V60.2174H210.478V31.2609H221.435V25Z" fill="#17447F" stroke="#17447F"/>
<path id="Vector 27" d="M147.87 30.4783L143.565 34.7826C141.589 32.3363 139.916 31.3629 135.739 30.4783C128.144 30.6266 125.234 33.3975 124.783 42.2174C124.018 50.5157 127.744 53.6853 135.739 54.7391C141.023 54.4604 143.155 53.8383 143.565 50.8261V45.3478H135.739V39.8696H149.435V53.5652C146.162 58.7629 143.366 60.5441 135.739 60.6087C121.87 59.2942 118.573 52.4607 118.522 42.2174C120.135 29.4916 125.077 25.1469 135.739 25C140.338 25.337 142.928 25.6745 147.87 30.4783Z" fill="#17447F" stroke="#17447F"/>
<path id="Vector 28" d="M183.087 25.3913H159.609V61H183.087V54.7391H165.478V46.1304H183.087V39.4783H165.478V31.2609H183.087V25.3913Z" fill="#17447F" stroke="#17447F"/>
<path id="a" d="M96.6087 25L79 60.6087H85.6522L96.6087 38.6957L106.783 60.6087H113.826L96.6087 25Z" fill="#17447F" stroke="#17447F"/>
</g>
<g id="Logo">
<path id="azul" d="M57 30.5L10.5 60.5H58L57 30.5Z" fill="#17447F"/>
<path id="azul (Stroke)" fill-rule="evenodd" clip-rule="evenodd" d="M57.4704 29.6015L58.517 61H8.80273L57.4704 29.6015ZM12.1973 60H57.4831L56.5297 31.3985L12.1973 60Z" fill="#17447F"/>
<path id="verde" d="M29 2L1 60.5H57.5L29 2Z" fill="#42AD44"/>
<path id="verde (Stroke)" fill-rule="evenodd" clip-rule="evenodd" d="M28.996 0.850189L58.2997 61H0.206299L28.996 0.850189ZM29.0039 3.14981L1.79357 60H56.7002L29.0039 3.14981Z" fill="#42AD44"/>
</g>
<g id="Gorro">
<path id="Vector 33" d="M107.541 26.2666C109.238 24.9582 108.881 21.4983 107.025 20.4268C106.376 20.1451 105.666 20.1802 104.971 20.3561C103.478 20.9811 102.275 22.8733 102.86 24.4416C103.586 26.3858 105.897 27.5337 107.541 26.2666Z" fill="#A6ECFF"/>
<path id="Vector 31" d="M83.1832 24.3504L85.373 30.9201L93.4027 28.3652L101.268 25.5051C100.29 23.6551 100.267 22.9903 101.067 22.5255C101.979 22.0961 102.362 22.4021 102.892 23.6204C102.971 23.0369 103.219 22.656 104.352 21.7955C104.746 21.6247 105.162 21.4664 105.583 21.3598C106.255 21.0786 106.985 21.0539 107.637 21.4305C106.639 19.0074 105.082 15.5908 105.082 15.5908C100.629 9.58434 97.3434 8.93603 90.4829 11.2109C84.0354 14.4521 82.3936 17.2944 83.1832 24.3504Z" fill="#EA0016"/>
<g id="Vector 32">
<path d="M95.3303 34.089L93.1404 28.2492L85.1107 31.1691C84.3915 31.5151 84.2663 31.884 84.7457 32.994C85.8608 35.6799 86.4931 37.2483 87.3006 37.0089L95.3303 34.089Z" fill="#E3FBFF"/>
<path d="M95.3303 34.089L93.1404 28.2492L85.1107 31.1691C84.3915 31.5151 84.2663 31.884 84.7457 32.994C85.8608 35.6799 86.4931 37.2483 87.3006 37.0089L95.3303 34.089Z" fill="#E3FBFF"/>
</g>
<path id="Vector 34" d="M93.2195 28.2612L95.4094 34.101C96.0952 33.8644 96.7583 33.6387 97.3922 33.423C101.74 31.9434 104.711 30.9324 104.169 30.0861C104.093 29.8715 104.019 29.6623 103.948 29.459C103.021 26.8268 102.438 25.1713 101.249 25.3413L101.085 25.401C101.137 25.4994 101.192 25.6011 101.249 25.7063L93.2195 28.2612Z" fill="#A6ECFF"/>
</g>
<g id="texto-orcamento">
<path d="M3.88151 76.085C3.13918 76.085 2.56401 75.8923 2.15601 75.507C1.75368 75.116 1.54118 74.5295 1.51851 73.7475C1.51284 73.5775 1.51001 73.3367 1.51001 73.025C1.51001 72.7133 1.51284 72.4753 1.51851 72.311C1.54118 71.546 1.76218 70.9652 2.18151 70.5685C2.60084 70.1662 3.16751 69.965 3.88151 69.965C4.58984 69.965 5.15368 70.1662 5.57301 70.5685C5.99234 70.9652 6.21334 71.546 6.23601 72.311C6.24734 72.6397 6.25301 72.8777 6.25301 73.025C6.25301 73.1667 6.24734 73.4075 6.23601 73.7475C6.21334 74.5295 5.99801 75.116 5.59001 75.507C5.18768 75.8923 4.61818 76.085 3.88151 76.085ZM3.88151 75.3625C4.32918 75.3625 4.68618 75.2265 4.95251 74.9545C5.21884 74.6825 5.36334 74.266 5.38601 73.705C5.39734 73.365 5.40301 73.1383 5.40301 73.025C5.40301 72.9003 5.39734 72.6737 5.38601 72.345C5.36334 71.784 5.21601 71.3675 4.94401 71.0955C4.67768 70.8235 4.32351 70.6875 3.88151 70.6875C3.43384 70.6875 3.07401 70.8235 2.80201 71.0955C2.53568 71.3675 2.39118 71.784 2.36851 72.345C2.36284 72.5093 2.36001 72.736 2.36001 73.025C2.36001 73.3083 2.36284 73.535 2.36851 73.705C2.39118 74.266 2.53568 74.6825 2.80201 74.9545C3.07401 75.2265 3.43384 75.3625 3.88151 75.3625Z" fill="#17447F"/>
<path d="M7.57695 76C7.52028 76 7.47212 75.983 7.43245 75.949C7.39845 75.9093 7.38145 75.8612 7.38145 75.8045V71.784C7.38145 71.7273 7.39845 71.6792 7.43245 71.6395C7.47212 71.5998 7.52028 71.58 7.57695 71.58H7.96795C8.02462 71.58 8.07278 71.5998 8.11245 71.6395C8.15212 71.6792 8.17195 71.7273 8.17195 71.784V72.158C8.40428 71.7727 8.80095 71.58 9.36195 71.58H9.69345C9.75012 71.58 9.79545 71.5998 9.82945 71.6395C9.86912 71.6735 9.88895 71.7188 9.88895 71.7755V72.124C9.88895 72.1807 9.86912 72.226 9.82945 72.26C9.79545 72.294 9.75012 72.311 9.69345 72.311H9.18345C8.87745 72.311 8.63662 72.4017 8.46095 72.583C8.28528 72.7587 8.19745 72.9995 8.19745 73.3055V75.8045C8.19745 75.8612 8.17762 75.9093 8.13795 75.949C8.09828 75.983 8.05012 76 7.99345 76H7.57695Z" fill="#17447F"/>
<path d="M12.3124 77.87C12.1198 77.87 11.9469 77.8303 11.7939 77.751C11.6466 77.6717 11.5729 77.5923 11.5729 77.513C11.5729 77.4847 11.5843 77.4592 11.6069 77.4365L11.7344 77.3175C11.7628 77.2892 11.7911 77.275 11.8194 77.275C11.8421 77.275 11.8988 77.3033 11.9894 77.36C12.0744 77.4167 12.1764 77.445 12.2954 77.445C12.3918 77.445 12.4711 77.4167 12.5334 77.36C12.6014 77.3033 12.6354 77.2268 12.6354 77.1305C12.6354 77.0455 12.6014 76.9747 12.5334 76.918C12.4711 76.8613 12.3918 76.833 12.2954 76.833C12.2274 76.833 12.1538 76.8472 12.0744 76.8755C11.9951 76.8982 11.9413 76.9095 11.9129 76.9095C11.8619 76.9095 11.8223 76.8925 11.7939 76.8585L11.6494 76.7055C11.6324 76.6828 11.6239 76.6602 11.6239 76.6375C11.6239 76.6092 11.6324 76.5752 11.6494 76.5355C11.6664 76.4958 11.6778 76.4675 11.6834 76.4505L11.8534 76.0425C11.3888 75.9688 11.0233 75.7648 10.7569 75.4305C10.4963 75.0962 10.3574 74.6627 10.3404 74.13L10.3319 73.79L10.3404 73.45C10.3631 72.8323 10.5444 72.3535 10.8844 72.0135C11.2301 71.6678 11.7061 71.495 12.3124 71.495C12.7204 71.495 13.0661 71.5687 13.3494 71.716C13.6328 71.8633 13.8424 72.0447 13.9784 72.26C14.1201 72.4753 14.1966 72.6907 14.2079 72.906C14.2136 72.9627 14.1966 73.008 14.1569 73.042C14.1173 73.076 14.0691 73.093 14.0124 73.093H13.6044C13.5478 73.093 13.5053 73.0817 13.4769 73.059C13.4486 73.0363 13.4203 72.991 13.3919 72.923C13.2956 72.651 13.1596 72.4583 12.9839 72.345C12.8083 72.226 12.5873 72.1665 12.3209 72.1665C11.9696 72.1665 11.6891 72.277 11.4794 72.498C11.2754 72.7133 11.1649 73.0448 11.1479 73.4925L11.1394 73.7985L11.1479 74.0875C11.1649 74.5408 11.2754 74.8752 11.4794 75.0905C11.6834 75.3058 11.9639 75.4135 12.3209 75.4135C12.5873 75.4135 12.8083 75.3568 12.9839 75.2435C13.1596 75.1245 13.2956 74.929 13.3919 74.657C13.4203 74.589 13.4486 74.5437 13.4769 74.521C13.5053 74.4927 13.5478 74.4785 13.6044 74.4785H14.0124C14.0691 74.4785 14.1173 74.4983 14.1569 74.538C14.1966 74.572 14.2136 74.6173 14.2079 74.674C14.1966 74.8837 14.1201 75.0962 13.9784 75.3115C13.8424 75.5268 13.6328 75.711 13.3494 75.864C13.0718 76.0113 12.7289 76.085 12.3209 76.085L12.1339 76.476C12.2076 76.4307 12.3124 76.408 12.4484 76.408C12.6411 76.408 12.7969 76.4732 12.9159 76.6035C13.0406 76.7395 13.1029 76.9123 13.1029 77.122C13.1029 77.3373 13.0321 77.5158 12.8904 77.6575C12.7544 77.7992 12.5618 77.87 12.3124 77.87Z" fill="#17447F"/>
<path d="M16.4499 76.085C16.1722 76.085 15.9144 76.0283 15.6764 75.915C15.4384 75.8017 15.2486 75.6487 15.1069 75.456C14.9709 75.2577 14.9029 75.0395 14.9029 74.8015C14.9029 74.4275 15.0559 74.1215 15.3619 73.8835C15.6736 73.6398 16.0929 73.4812 16.6199 73.4075L17.8864 73.229V72.9825C17.8864 72.4045 17.5549 72.1155 16.8919 72.1155C16.6426 72.1155 16.4386 72.1693 16.2799 72.277C16.1212 72.379 16.0022 72.5008 15.9229 72.6425C15.9059 72.6935 15.8832 72.7303 15.8549 72.753C15.8322 72.7757 15.7982 72.787 15.7529 72.787H15.3874C15.3364 72.787 15.2911 72.77 15.2514 72.736C15.2174 72.6963 15.2004 72.651 15.2004 72.6C15.2061 72.464 15.2684 72.311 15.3874 72.141C15.5121 71.9653 15.7019 71.8152 15.9569 71.6905C16.2119 71.5602 16.5264 71.495 16.9004 71.495C17.5351 71.495 17.9912 71.6452 18.2689 71.9455C18.5466 72.2402 18.6854 72.6085 18.6854 73.0505V75.8045C18.6854 75.8612 18.6656 75.9093 18.6259 75.949C18.5919 75.983 18.5466 76 18.4899 76H18.0989C18.0422 76 17.9941 75.983 17.9544 75.949C17.9204 75.9093 17.9034 75.8612 17.9034 75.8045V75.439C17.7787 75.6203 17.5974 75.7733 17.3594 75.898C17.1214 76.0227 16.8182 76.085 16.4499 76.085ZM16.6284 75.4475C16.9967 75.4475 17.2971 75.3285 17.5294 75.0905C17.7674 74.8468 17.8864 74.4983 17.8864 74.045V73.807L16.9004 73.9515C16.4981 74.0082 16.1949 74.1045 15.9909 74.2405C15.7869 74.3708 15.6849 74.538 15.6849 74.742C15.6849 74.9687 15.7784 75.1443 15.9654 75.269C16.1524 75.388 16.3734 75.4475 16.6284 75.4475Z" fill="#17447F"/>
<path d="M20.1028 76C20.0462 76 19.998 75.983 19.9583 75.949C19.9243 75.9093 19.9073 75.8612 19.9073 75.8045V71.7755C19.9073 71.7188 19.9243 71.6735 19.9583 71.6395C19.998 71.5998 20.0462 71.58 20.1028 71.58H20.4853C20.542 71.58 20.5873 71.5998 20.6213 71.6395C20.661 71.6735 20.6808 71.7188 20.6808 71.7755V72.073C20.9755 71.6877 21.3863 71.495 21.9133 71.495C22.5423 71.495 22.9872 71.7557 23.2478 72.277C23.3838 72.039 23.5765 71.8492 23.8258 71.7075C24.0752 71.5658 24.3557 71.495 24.6673 71.495C25.132 71.495 25.5117 71.6537 25.8063 71.971C26.101 72.2883 26.2483 72.7473 26.2483 73.348V75.8045C26.2483 75.8612 26.2285 75.9093 26.1888 75.949C26.1548 75.983 26.1095 76 26.0528 76H25.6533C25.5967 76 25.5485 75.983 25.5088 75.949C25.4748 75.9093 25.4578 75.8612 25.4578 75.8045V73.4245C25.4578 72.9825 25.3643 72.6652 25.1773 72.4725C24.996 72.2798 24.7552 72.1835 24.4548 72.1835C24.1885 72.1835 23.959 72.2827 23.7663 72.481C23.5737 72.6737 23.4773 72.9882 23.4773 73.4245V75.8045C23.4773 75.8612 23.4575 75.9093 23.4178 75.949C23.3838 75.983 23.3385 76 23.2818 76H22.8823C22.8257 76 22.7775 75.983 22.7378 75.949C22.7038 75.9093 22.6868 75.8612 22.6868 75.8045V73.4245C22.6868 72.9825 22.5905 72.6652 22.3978 72.4725C22.2108 72.2798 21.9728 72.1835 21.6838 72.1835C21.4175 72.1835 21.188 72.2827 20.9953 72.481C20.8027 72.6737 20.7063 72.9853 20.7063 73.416V75.8045C20.7063 75.8612 20.6865 75.9093 20.6468 75.949C20.6128 75.983 20.5675 76 20.5108 76H20.1028Z" fill="#17447F"/>
<path d="M29.229 76.085C28.6454 76.085 28.1779 75.9065 27.8265 75.5495C27.4809 75.1868 27.291 74.6938 27.257 74.0705L27.2485 73.7815L27.257 73.501C27.2967 72.889 27.4894 72.4017 27.835 72.039C28.1864 71.6763 28.6482 71.495 29.2205 71.495C29.8495 71.495 30.3369 71.6962 30.6825 72.0985C31.0282 72.4952 31.201 73.0335 31.201 73.7135V73.858C31.201 73.9147 31.1812 73.9628 31.1415 74.0025C31.1075 74.0365 31.0622 74.0535 31.0055 74.0535H28.0645V74.13C28.0815 74.4983 28.192 74.8128 28.396 75.0735C28.6057 75.3285 28.8805 75.456 29.2205 75.456C29.4812 75.456 29.6937 75.405 29.858 75.303C30.028 75.1953 30.1527 75.0848 30.232 74.9715C30.283 74.9035 30.3199 74.8638 30.3425 74.8525C30.3709 74.8355 30.419 74.827 30.487 74.827H30.9035C30.9545 74.827 30.997 74.8412 31.031 74.8695C31.065 74.8978 31.082 74.9375 31.082 74.9885C31.082 75.1132 31.0027 75.2633 30.844 75.439C30.691 75.6147 30.4729 75.7677 30.1895 75.898C29.9119 76.0227 29.5917 76.085 29.229 76.085ZM30.3935 73.467V73.4415C30.3935 73.0505 30.2859 72.7332 30.0705 72.4895C29.8609 72.2402 29.5775 72.1155 29.2205 72.1155C28.8635 72.1155 28.5802 72.2402 28.3705 72.4895C28.1665 72.7332 28.0645 73.0505 28.0645 73.4415V73.467H30.3935Z" fill="#17447F"/>
<path d="M32.4129 76C32.3562 76 32.3081 75.983 32.2684 75.949C32.2344 75.9093 32.2174 75.8612 32.2174 75.8045V71.7755C32.2174 71.7188 32.2344 71.6735 32.2684 71.6395C32.3081 71.5998 32.3562 71.58 32.4129 71.58H32.8124C32.8691 71.58 32.9144 71.5998 32.9484 71.6395C32.9881 71.6735 33.0079 71.7188 33.0079 71.7755V72.1495C33.1722 71.9398 33.3649 71.7783 33.5859 71.665C33.8126 71.5517 34.0931 71.495 34.4274 71.495C34.9714 71.495 35.3936 71.6707 35.6939 72.022C35.9999 72.3677 36.1529 72.8295 36.1529 73.4075V75.8045C36.1529 75.8612 36.1331 75.9093 36.0934 75.949C36.0594 75.983 36.0141 76 35.9574 76H35.5324C35.4757 76 35.4276 75.983 35.3879 75.949C35.3539 75.9093 35.3369 75.8612 35.3369 75.8045V73.45C35.3369 73.0477 35.2377 72.736 35.0394 72.515C34.8467 72.294 34.5662 72.1835 34.1979 72.1835C33.8409 72.1835 33.5576 72.2968 33.3479 72.5235C33.1382 72.7445 33.0334 73.0533 33.0334 73.45V75.8045C33.0334 75.8612 33.0136 75.9093 32.9739 75.949C32.9399 75.983 32.8946 76 32.8379 76H32.4129Z" fill="#17447F"/>
<path d="M39.0396 76C38.1442 76 37.6966 75.5013 37.6966 74.504V72.26H37.0336C36.9769 72.26 36.9287 72.243 36.8891 72.209C36.8551 72.1693 36.8381 72.1212 36.8381 72.0645V71.7755C36.8381 71.7188 36.8551 71.6735 36.8891 71.6395C36.9287 71.5998 36.9769 71.58 37.0336 71.58H37.6966V70.1605C37.6966 70.1038 37.7136 70.0585 37.7476 70.0245C37.7872 69.9848 37.8354 69.965 37.8921 69.965H38.2916C38.3482 69.965 38.3936 69.9848 38.4276 70.0245C38.4672 70.0585 38.4871 70.1038 38.4871 70.1605V71.58H39.5411C39.5977 71.58 39.6431 71.5998 39.6771 71.6395C39.7167 71.6735 39.7366 71.7188 39.7366 71.7755V72.0645C39.7366 72.1212 39.7167 72.1693 39.6771 72.209C39.6431 72.243 39.5977 72.26 39.5411 72.26H38.4871V74.4445C38.4871 74.7278 38.5352 74.9432 38.6316 75.0905C38.7279 75.2322 38.8866 75.303 39.1076 75.303H39.6261C39.6827 75.303 39.7281 75.3228 39.7621 75.3625C39.8017 75.3965 39.8216 75.4418 39.8216 75.4985V75.8045C39.8216 75.8612 39.8017 75.9093 39.7621 75.949C39.7281 75.983 39.6827 76 39.6261 76H39.0396Z" fill="#17447F"/>
<path d="M42.4449 76.085C41.8215 76.085 41.337 75.9093 40.9914 75.558C40.6514 75.2067 40.4701 74.7392 40.4474 74.1555L40.4389 73.79L40.4474 73.4245C40.4701 72.8465 40.6542 72.3818 40.9999 72.0305C41.3455 71.6735 41.8272 71.495 42.4449 71.495C43.0625 71.495 43.5442 71.6735 43.8899 72.0305C44.2355 72.3818 44.4197 72.8465 44.4424 73.4245C44.448 73.4868 44.4509 73.6087 44.4509 73.79C44.4509 73.9713 44.448 74.0932 44.4424 74.1555C44.4197 74.7392 44.2355 75.2067 43.8899 75.558C43.5499 75.9093 43.0682 76.085 42.4449 76.085ZM42.4449 75.4305C42.8019 75.4305 43.0824 75.3172 43.2864 75.0905C43.496 74.8638 43.6094 74.538 43.6264 74.113C43.632 74.0563 43.6349 73.9487 43.6349 73.79C43.6349 73.6313 43.632 73.5237 43.6264 73.467C43.6094 73.042 43.496 72.7162 43.2864 72.4895C43.0824 72.2628 42.8019 72.1495 42.4449 72.1495C42.0879 72.1495 41.8045 72.2628 41.5949 72.4895C41.3852 72.7162 41.2747 73.042 41.2634 73.467L41.2549 73.79L41.2634 74.113C41.2747 74.538 41.3852 74.8638 41.5949 75.0905C41.8045 75.3172 42.0879 75.4305 42.4449 75.4305Z" fill="#17447F"/>
<path d="M45.3727 76.6375C45.3274 76.6375 45.2906 76.6205 45.2622 76.5865C45.2396 76.5525 45.2311 76.51 45.2367 76.459L45.4322 75.2435C45.4549 75.0792 45.5342 74.997 45.6702 74.997H46.2397C46.2794 74.997 46.3106 75.0112 46.3332 75.0395C46.3616 75.0678 46.3757 75.1018 46.3757 75.1415C46.3757 75.1698 46.3672 75.2152 46.3502 75.2775L45.8997 76.442C45.8714 76.51 45.8402 76.5582 45.8062 76.5865C45.7722 76.6205 45.7212 76.6375 45.6532 76.6375H45.3727Z" fill="#17447F"/>
<path d="M51.4174 76.085C50.8111 76.085 50.3351 75.915 49.9894 75.575C49.6494 75.2293 49.4681 74.7477 49.4454 74.13L49.4369 73.79L49.4454 73.45C49.4681 72.8323 49.6494 72.3535 49.9894 72.0135C50.3351 71.6678 50.8111 71.495 51.4174 71.495C51.8254 71.495 52.1711 71.5687 52.4544 71.716C52.7378 71.8633 52.9474 72.0447 53.0834 72.26C53.2251 72.4753 53.3016 72.6907 53.3129 72.906C53.3186 72.9627 53.3016 73.008 53.2619 73.042C53.2223 73.076 53.1741 73.093 53.1174 73.093H52.7094C52.6528 73.093 52.6103 73.0817 52.5819 73.059C52.5536 73.0363 52.5253 72.991 52.4969 72.923C52.4006 72.651 52.2646 72.4583 52.0889 72.345C51.9133 72.226 51.6923 72.1665 51.4259 72.1665C51.0746 72.1665 50.7941 72.277 50.5844 72.498C50.3804 72.7133 50.2699 73.0448 50.2529 73.4925L50.2444 73.7985L50.2529 74.0875C50.2699 74.5408 50.3804 74.8752 50.5844 75.0905C50.7884 75.3058 51.0689 75.4135 51.4259 75.4135C51.6923 75.4135 51.9133 75.3568 52.0889 75.2435C52.2646 75.1245 52.4006 74.929 52.4969 74.657C52.5253 74.589 52.5536 74.5437 52.5819 74.521C52.6103 74.4927 52.6528 74.4785 52.7094 74.4785H53.1174C53.1741 74.4785 53.2223 74.4983 53.2619 74.538C53.3016 74.572 53.3186 74.6173 53.3129 74.674C53.3016 74.8837 53.2251 75.099 53.0834 75.32C52.9474 75.5353 52.7378 75.7167 52.4544 75.864C52.1768 76.0113 51.8311 76.085 51.4174 76.085Z" fill="#17447F"/>
<path d="M54.5179 76C54.4612 76 54.413 75.983 54.3734 75.949C54.3394 75.9093 54.3224 75.8612 54.3224 75.8045V71.784C54.3224 71.7273 54.3394 71.6792 54.3734 71.6395C54.413 71.5998 54.4612 71.58 54.5179 71.58H54.9089C54.9655 71.58 55.0137 71.5998 55.0534 71.6395C55.093 71.6792 55.1129 71.7273 55.1129 71.784V72.158C55.3452 71.7727 55.7419 71.58 56.3029 71.58H56.6344C56.691 71.58 56.7364 71.5998 56.7704 71.6395C56.81 71.6735 56.8299 71.7188 56.8299 71.7755V72.124C56.8299 72.1807 56.81 72.226 56.7704 72.26C56.7364 72.294 56.691 72.311 56.6344 72.311H56.1244C55.8184 72.311 55.5775 72.4017 55.4019 72.583C55.2262 72.7587 55.1384 72.9995 55.1384 73.3055V75.8045C55.1384 75.8612 55.1185 75.9093 55.0789 75.949C55.0392 75.983 54.991 76 54.9344 76H54.5179Z" fill="#17447F"/>
<path d="M59.2789 76.085C58.6555 76.085 58.171 75.9093 57.8254 75.558C57.4854 75.2067 57.304 74.7392 57.2814 74.1555L57.2729 73.79L57.2814 73.4245C57.304 72.8465 57.4882 72.3818 57.8339 72.0305C58.1795 71.6735 58.6612 71.495 59.2789 71.495C59.8965 71.495 60.3782 71.6735 60.7239 72.0305C61.0695 72.3818 61.2537 72.8465 61.2764 73.4245C61.282 73.4868 61.2849 73.6087 61.2849 73.79C61.2849 73.9713 61.282 74.0932 61.2764 74.1555C61.2537 74.7392 61.0695 75.2067 60.7239 75.558C60.3839 75.9093 59.9022 76.085 59.2789 76.085ZM59.2789 75.4305C59.6359 75.4305 59.9164 75.3172 60.1204 75.0905C60.33 74.8638 60.4434 74.538 60.4604 74.113C60.466 74.0563 60.4689 73.9487 60.4689 73.79C60.4689 73.6313 60.466 73.5237 60.4604 73.467C60.4434 73.042 60.33 72.7162 60.1204 72.4895C59.9164 72.2628 59.6359 72.1495 59.2789 72.1495C58.9219 72.1495 58.6385 72.2628 58.4289 72.4895C58.2192 72.7162 58.1087 73.042 58.0974 73.467L58.0889 73.79L58.0974 74.113C58.1087 74.538 58.2192 74.8638 58.4289 75.0905C58.6385 75.3172 58.9219 75.4305 59.2789 75.4305Z" fill="#17447F"/>
<path d="M62.5447 76C62.4881 76 62.4399 75.983 62.4002 75.949C62.3662 75.9093 62.3492 75.8612 62.3492 75.8045V71.7755C62.3492 71.7188 62.3662 71.6735 62.4002 71.6395C62.4399 71.5998 62.4881 71.58 62.5447 71.58H62.9442C63.0009 71.58 63.0462 71.5998 63.0802 71.6395C63.1199 71.6735 63.1397 71.7188 63.1397 71.7755V72.1495C63.3041 71.9398 63.4967 71.7783 63.7177 71.665C63.9444 71.5517 64.2249 71.495 64.5592 71.495C65.1032 71.495 65.5254 71.6707 65.8257 72.022C66.1317 72.3677 66.2847 72.8295 66.2847 73.4075V75.8045C66.2847 75.8612 66.2649 75.9093 66.2252 75.949C66.1912 75.983 66.1459 76 66.0892 76H65.6642C65.6076 76 65.5594 75.983 65.5197 75.949C65.4857 75.9093 65.4687 75.8612 65.4687 75.8045V73.45C65.4687 73.0477 65.3696 72.736 65.1712 72.515C64.9786 72.294 64.6981 72.1835 64.3297 72.1835C63.9727 72.1835 63.6894 72.2968 63.4797 72.5235C63.2701 72.7445 63.1652 73.0533 63.1652 73.45V75.8045C63.1652 75.8612 63.1454 75.9093 63.1057 75.949C63.0717 75.983 63.0264 76 62.9697 76H62.5447Z" fill="#17447F"/>
<path d="M69.3145 76.085C68.6912 76.085 68.2067 75.9093 67.861 75.558C67.521 75.2067 67.3397 74.7392 67.317 74.1555L67.3085 73.79L67.317 73.4245C67.3397 72.8465 67.5238 72.3818 67.8695 72.0305C68.2152 71.6735 68.6968 71.495 69.3145 71.495C69.9322 71.495 70.4138 71.6735 70.7595 72.0305C71.1052 72.3818 71.2893 72.8465 71.312 73.4245C71.3177 73.4868 71.3205 73.6087 71.3205 73.79C71.3205 73.9713 71.3177 74.0932 71.312 74.1555C71.2893 74.7392 71.1052 75.2067 70.7595 75.558C70.4195 75.9093 69.9378 76.085 69.3145 76.085ZM69.3145 75.4305C69.6715 75.4305 69.952 75.3172 70.156 75.0905C70.3657 74.8638 70.479 74.538 70.496 74.113C70.5017 74.0563 70.5045 73.9487 70.5045 73.79C70.5045 73.6313 70.5017 73.5237 70.496 73.467C70.479 73.042 70.3657 72.7162 70.156 72.4895C69.952 72.2628 69.6715 72.1495 69.3145 72.1495C68.9575 72.1495 68.6742 72.2628 68.4645 72.4895C68.2548 72.7162 68.1443 73.042 68.133 73.467L68.1245 73.79L68.133 74.113C68.1443 74.538 68.2548 74.8638 68.4645 75.0905C68.6742 75.3172 68.9575 75.4305 69.3145 75.4305Z" fill="#17447F"/>
<path d="M74.1954 77.87C73.7307 77.87 73.3567 77.7907 73.0734 77.632C72.79 77.479 72.5889 77.3033 72.4699 77.105C72.3509 76.9067 72.2857 76.7282 72.2744 76.5695C72.2687 76.5128 72.2857 76.4647 72.3254 76.425C72.3707 76.3853 72.4189 76.3655 72.4699 76.3655H72.8779C72.9289 76.3655 72.9714 76.3768 73.0054 76.3995C73.0394 76.4278 73.0677 76.476 73.0904 76.544C73.1584 76.7253 73.2689 76.8812 73.4219 77.0115C73.5805 77.1475 73.8242 77.2155 74.1529 77.2155C74.5722 77.2155 74.881 77.1248 75.0794 76.9435C75.2777 76.7678 75.3769 76.4533 75.3769 76V75.422C75.2295 75.609 75.0425 75.7592 74.8159 75.8725C74.5892 75.9802 74.32 76.034 74.0084 76.034C73.4077 76.034 72.9572 75.8442 72.6569 75.4645C72.3622 75.0792 72.2064 74.5918 72.1894 74.0025L72.1809 73.7645L72.1894 73.535C72.2064 72.9513 72.365 72.4668 72.6654 72.0815C72.9657 71.6905 73.4134 71.495 74.0084 71.495C74.6034 71.495 75.068 71.7132 75.4024 72.1495V71.784C75.4024 71.7273 75.4194 71.6792 75.4534 71.6395C75.493 71.5998 75.5412 71.58 75.5979 71.58H75.9889C76.0455 71.58 76.0937 71.5998 76.1334 71.6395C76.173 71.6792 76.1929 71.7273 76.1929 71.784V75.9065C76.1929 77.2155 75.527 77.87 74.1954 77.87ZM74.1784 75.354C74.5637 75.354 74.8555 75.2265 75.0539 74.9715C75.2522 74.7165 75.3599 74.4133 75.3769 74.062C75.3825 74.011 75.3854 73.9118 75.3854 73.7645C75.3854 73.6228 75.3825 73.5265 75.3769 73.4755C75.3599 73.1242 75.2522 72.821 75.0539 72.566C74.8612 72.311 74.5694 72.1835 74.1784 72.1835C73.776 72.1835 73.4842 72.3082 73.3029 72.5575C73.1215 72.8068 73.0224 73.1355 73.0054 73.5435L72.9969 73.7645L73.0054 73.994C73.0224 74.3963 73.1215 74.725 73.3029 74.98C73.4842 75.2293 73.776 75.354 74.1784 75.354Z" fill="#17447F"/>
<path d="M77.6521 76C77.5955 76 77.5473 75.983 77.5076 75.949C77.4736 75.9093 77.4566 75.8612 77.4566 75.8045V71.784C77.4566 71.7273 77.4736 71.6792 77.5076 71.6395C77.5473 71.5998 77.5955 71.58 77.6521 71.58H78.0431C78.0998 71.58 78.148 71.5998 78.1876 71.6395C78.2273 71.6792 78.2471 71.7273 78.2471 71.784V72.158C78.4795 71.7727 78.8761 71.58 79.4371 71.58H79.7686C79.8253 71.58 79.8706 71.5998 79.9046 71.6395C79.9443 71.6735 79.9641 71.7188 79.9641 71.7755V72.124C79.9641 72.1807 79.9443 72.226 79.9046 72.26C79.8706 72.294 79.8253 72.311 79.7686 72.311H79.2586C78.9526 72.311 78.7118 72.4017 78.5361 72.583C78.3605 72.7587 78.2726 72.9995 78.2726 73.3055V75.8045C78.2726 75.8612 78.2528 75.9093 78.2131 75.949C78.1735 75.983 78.1253 76 78.0686 76H77.6521Z" fill="#17447F"/>
<path d="M81.8517 76.085C81.5741 76.085 81.3162 76.0283 81.0782 75.915C80.8402 75.8017 80.6504 75.6487 80.5087 75.456C80.3727 75.2577 80.3047 75.0395 80.3047 74.8015C80.3047 74.4275 80.4577 74.1215 80.7637 73.8835C81.0754 73.6398 81.4947 73.4812 82.0217 73.4075L83.2882 73.229V72.9825C83.2882 72.4045 82.9567 72.1155 82.2937 72.1155C82.0444 72.1155 81.8404 72.1693 81.6817 72.277C81.5231 72.379 81.4041 72.5008 81.3247 72.6425C81.3077 72.6935 81.2851 72.7303 81.2567 72.753C81.2341 72.7757 81.2001 72.787 81.1547 72.787H80.7892C80.7382 72.787 80.6929 72.77 80.6532 72.736C80.6192 72.6963 80.6022 72.651 80.6022 72.6C80.6079 72.464 80.6702 72.311 80.7892 72.141C80.9139 71.9653 81.1037 71.8152 81.3587 71.6905C81.6137 71.5602 81.9282 71.495 82.3022 71.495C82.9369 71.495 83.3931 71.6452 83.6707 71.9455C83.9484 72.2402 84.0872 72.6085 84.0872 73.0505V75.8045C84.0872 75.8612 84.0674 75.9093 84.0277 75.949C83.9937 75.983 83.9484 76 83.8917 76H83.5007C83.4441 76 83.3959 75.983 83.3562 75.949C83.3222 75.9093 83.3052 75.8612 83.3052 75.8045V75.439C83.1806 75.6203 82.9992 75.7733 82.7612 75.898C82.5232 76.0227 82.2201 76.085 81.8517 76.085ZM82.0302 75.4475C82.3986 75.4475 82.6989 75.3285 82.9312 75.0905C83.1692 74.8468 83.2882 74.4983 83.2882 74.045V73.807L82.3022 73.9515C81.8999 74.0082 81.5967 74.1045 81.3927 74.2405C81.1887 74.3708 81.0867 74.538 81.0867 74.742C81.0867 74.9687 81.1802 75.1443 81.3672 75.269C81.5542 75.388 81.7752 75.4475 82.0302 75.4475Z" fill="#17447F"/>
<path d="M85.5047 76C85.448 76 85.3999 75.983 85.3602 75.949C85.3262 75.9093 85.3092 75.8612 85.3092 75.8045V71.7755C85.3092 71.7188 85.3262 71.6735 85.3602 71.6395C85.3999 71.5998 85.448 71.58 85.5047 71.58H85.8872C85.9439 71.58 85.9892 71.5998 86.0232 71.6395C86.0629 71.6735 86.0827 71.7188 86.0827 71.7755V72.073C86.3773 71.6877 86.7882 71.495 87.3152 71.495C87.9442 71.495 88.389 71.7557 88.6497 72.277C88.7857 72.039 88.9784 71.8492 89.2277 71.7075C89.477 71.5658 89.7575 71.495 90.0692 71.495C90.5339 71.495 90.9135 71.6537 91.2082 71.971C91.5029 72.2883 91.6502 72.7473 91.6502 73.348V75.8045C91.6502 75.8612 91.6303 75.9093 91.5907 75.949C91.5567 75.983 91.5113 76 91.4547 76H91.0552C90.9985 76 90.9503 75.983 90.9107 75.949C90.8767 75.9093 90.8597 75.8612 90.8597 75.8045V73.4245C90.8597 72.9825 90.7662 72.6652 90.5792 72.4725C90.3979 72.2798 90.157 72.1835 89.8567 72.1835C89.5903 72.1835 89.3608 72.2827 89.1682 72.481C88.9755 72.6737 88.8792 72.9882 88.8792 73.4245V75.8045C88.8792 75.8612 88.8594 75.9093 88.8197 75.949C88.7857 75.983 88.7404 76 88.6837 76H88.2842C88.2275 76 88.1794 75.983 88.1397 75.949C88.1057 75.9093 88.0887 75.8612 88.0887 75.8045V73.4245C88.0887 72.9825 87.9923 72.6652 87.7997 72.4725C87.6127 72.2798 87.3747 72.1835 87.0857 72.1835C86.8194 72.1835 86.5899 72.2827 86.3972 72.481C86.2045 72.6737 86.1082 72.9853 86.1082 73.416V75.8045C86.1082 75.8612 86.0883 75.9093 86.0487 75.949C86.0147 75.983 85.9693 76 85.9127 76H85.5047Z" fill="#17447F"/>
<path d="M94.0954 76.085C93.8177 76.085 93.5599 76.0283 93.3219 75.915C93.0839 75.8017 92.8941 75.6487 92.7524 75.456C92.6164 75.2577 92.5484 75.0395 92.5484 74.8015C92.5484 74.4275 92.7014 74.1215 93.0074 73.8835C93.3191 73.6398 93.7384 73.4812 94.2654 73.4075L95.5319 73.229V72.9825C95.5319 72.4045 95.2004 72.1155 94.5374 72.1155C94.2881 72.1155 94.0841 72.1693 93.9254 72.277C93.7667 72.379 93.6477 72.5008 93.5684 72.6425C93.5514 72.6935 93.5287 72.7303 93.5004 72.753C93.4777 72.7757 93.4437 72.787 93.3984 72.787H93.0329C92.9819 72.787 92.9366 72.77 92.8969 72.736C92.8629 72.6963 92.8459 72.651 92.8459 72.6C92.8516 72.464 92.9139 72.311 93.0329 72.141C93.1576 71.9653 93.3474 71.8152 93.6024 71.6905C93.8574 71.5602 94.1719 71.495 94.5459 71.495C95.1806 71.495 95.6367 71.6452 95.9144 71.9455C96.1921 72.2402 96.3309 72.6085 96.3309 73.0505V75.8045C96.3309 75.8612 96.3111 75.9093 96.2714 75.949C96.2374 75.983 96.1921 76 96.1354 76H95.7444C95.6877 76 95.6396 75.983 95.5999 75.949C95.5659 75.9093 95.5489 75.8612 95.5489 75.8045V75.439C95.4242 75.6203 95.2429 75.7733 95.0049 75.898C94.7669 76.0227 94.4637 76.085 94.0954 76.085ZM94.2739 75.4475C94.6422 75.4475 94.9426 75.3285 95.1749 75.0905C95.4129 74.8468 95.5319 74.4983 95.5319 74.045V73.807L94.5459 73.9515C94.1436 74.0082 93.8404 74.1045 93.6364 74.2405C93.4324 74.3708 93.3304 74.538 93.3304 74.742C93.3304 74.9687 93.4239 75.1443 93.6109 75.269C93.7979 75.388 94.0189 75.4475 94.2739 75.4475Z" fill="#17447F"/>
<path d="M101.251 76.085C100.662 76.085 100.217 75.8923 99.9168 75.507C99.6165 75.1217 99.4578 74.6343 99.4408 74.045L99.4323 73.79L99.4408 73.535C99.4578 72.9513 99.6165 72.4668 99.9168 72.0815C100.217 71.6905 100.662 71.495 101.251 71.495C101.835 71.495 102.294 71.7018 102.628 72.1155V70.1605C102.628 70.1038 102.645 70.0585 102.679 70.0245C102.719 69.9848 102.767 69.965 102.824 69.965H103.232C103.289 69.965 103.334 69.9848 103.368 70.0245C103.407 70.0585 103.427 70.1038 103.427 70.1605V75.8045C103.427 75.8612 103.407 75.9093 103.368 75.949C103.334 75.983 103.289 76 103.232 76H102.849C102.793 76 102.745 75.983 102.705 75.949C102.671 75.9093 102.654 75.8612 102.654 75.8045V75.4475C102.325 75.8725 101.858 76.085 101.251 76.085ZM101.43 75.3965C101.821 75.3965 102.113 75.269 102.305 75.014C102.504 74.7533 102.611 74.4445 102.628 74.0875C102.634 74.0252 102.637 73.9175 102.637 73.7645C102.637 73.6058 102.634 73.4953 102.628 73.433C102.617 73.0987 102.509 72.8068 102.305 72.5575C102.101 72.3082 101.809 72.1835 101.43 72.1835C101.027 72.1835 100.733 72.3082 100.546 72.5575C100.364 72.8068 100.265 73.1355 100.248 73.5435L100.24 73.79C100.24 74.861 100.636 75.3965 101.43 75.3965Z" fill="#17447F"/>
<path d="M106.46 76.085C105.876 76.085 105.408 75.9065 105.057 75.5495C104.711 75.1868 104.522 74.6938 104.488 74.0705L104.479 73.7815L104.488 73.501C104.527 72.889 104.72 72.4017 105.066 72.039C105.417 71.6763 105.879 71.495 106.451 71.495C107.08 71.495 107.567 71.6962 107.913 72.0985C108.259 72.4952 108.432 73.0335 108.432 73.7135V73.858C108.432 73.9147 108.412 73.9628 108.372 74.0025C108.338 74.0365 108.293 74.0535 108.236 74.0535H105.295V74.13C105.312 74.4983 105.423 74.8128 105.627 75.0735C105.836 75.3285 106.111 75.456 106.451 75.456C106.712 75.456 106.924 75.405 107.089 75.303C107.259 75.1953 107.383 75.0848 107.463 74.9715C107.514 74.9035 107.55 74.8638 107.573 74.8525C107.601 74.8355 107.65 74.827 107.718 74.827H108.134C108.185 74.827 108.228 74.8412 108.262 74.8695C108.296 74.8978 108.313 74.9375 108.313 74.9885C108.313 75.1132 108.233 75.2633 108.075 75.439C107.922 75.6147 107.703 75.7677 107.42 75.898C107.142 76.0227 106.822 76.085 106.46 76.085ZM107.624 73.467V73.4415C107.624 73.0505 107.516 72.7332 107.301 72.4895C107.091 72.2402 106.808 72.1155 106.451 72.1155C106.094 72.1155 105.811 72.2402 105.601 72.4895C105.397 72.7332 105.295 73.0505 105.295 73.4415V73.467H107.624Z" fill="#17447F"/>
<path d="M111.148 76C110.253 76 109.805 75.5013 109.805 74.504V72.26H109.142C109.086 72.26 109.038 72.243 108.998 72.209C108.964 72.1693 108.947 72.1212 108.947 72.0645V71.7755C108.947 71.7188 108.964 71.6735 108.998 71.6395C109.038 71.5998 109.086 71.58 109.142 71.58H109.805V70.1605C109.805 70.1038 109.822 70.0585 109.856 70.0245C109.896 69.9848 109.944 69.965 110.001 69.965H110.4C110.457 69.965 110.502 69.9848 110.536 70.0245C110.576 70.0585 110.596 70.1038 110.596 70.1605V71.58H111.65C111.707 71.58 111.752 71.5998 111.786 71.6395C111.826 71.6735 111.845 71.7188 111.845 71.7755V72.0645C111.845 72.1212 111.826 72.1693 111.786 72.209C111.752 72.243 111.707 72.26 111.65 72.26H110.596V74.4445C110.596 74.7278 110.644 74.9432 110.74 75.0905C110.837 75.2322 110.995 75.303 111.216 75.303H111.735C111.792 75.303 111.837 75.3228 111.871 75.3625C111.911 75.3965 111.93 75.4418 111.93 75.4985V75.8045C111.93 75.8612 111.911 75.9093 111.871 75.949C111.837 75.983 111.792 76 111.735 76H111.148Z" fill="#17447F"/>
<path d="M113.976 76.085C113.698 76.085 113.44 76.0283 113.202 75.915C112.964 75.8017 112.774 75.6487 112.633 75.456C112.497 75.2577 112.429 75.0395 112.429 74.8015C112.429 74.4275 112.582 74.1215 112.888 73.8835C113.199 73.6398 113.619 73.4812 114.146 73.4075L115.412 73.229V72.9825C115.412 72.4045 115.081 72.1155 114.418 72.1155C114.168 72.1155 113.964 72.1693 113.806 72.277C113.647 72.379 113.528 72.5008 113.449 72.6425C113.432 72.6935 113.409 72.7303 113.381 72.753C113.358 72.7757 113.324 72.787 113.279 72.787H112.913C112.862 72.787 112.817 72.77 112.777 72.736C112.743 72.6963 112.726 72.651 112.726 72.6C112.732 72.464 112.794 72.311 112.913 72.141C113.038 71.9653 113.228 71.8152 113.483 71.6905C113.738 71.5602 114.052 71.495 114.426 71.495C115.061 71.495 115.517 71.6452 115.795 71.9455C116.072 72.2402 116.211 72.6085 116.211 73.0505V75.8045C116.211 75.8612 116.191 75.9093 116.152 75.949C116.118 75.983 116.072 76 116.016 76H115.625C115.568 76 115.52 75.983 115.48 75.949C115.446 75.9093 115.429 75.8612 115.429 75.8045V75.439C115.305 75.6203 115.123 75.7733 114.885 75.898C114.647 76.0227 114.344 76.085 113.976 76.085ZM114.154 75.4475C114.523 75.4475 114.823 75.3285 115.055 75.0905C115.293 74.8468 115.412 74.4983 115.412 74.045V73.807L114.426 73.9515C114.024 74.0082 113.721 74.1045 113.517 74.2405C113.313 74.3708 113.211 74.538 113.211 74.742C113.211 74.9687 113.304 75.1443 113.491 75.269C113.678 75.388 113.899 75.4475 114.154 75.4475Z" fill="#17447F"/>
<path d="M117.637 76C117.581 76 117.532 75.983 117.493 75.949C117.459 75.9093 117.442 75.8612 117.442 75.8045V70.1605C117.442 70.1038 117.459 70.0585 117.493 70.0245C117.532 69.9848 117.581 69.965 117.637 69.965H118.037C118.093 69.965 118.139 69.9848 118.173 70.0245C118.212 70.0585 118.232 70.1038 118.232 70.1605V75.8045C118.232 75.8612 118.212 75.9093 118.173 75.949C118.139 75.983 118.093 76 118.037 76H117.637Z" fill="#17447F"/>
<path d="M119.704 76C119.647 76 119.599 75.983 119.56 75.949C119.526 75.9093 119.509 75.8612 119.509 75.8045V70.1605C119.509 70.1038 119.526 70.0585 119.56 70.0245C119.599 69.9848 119.647 69.965 119.704 69.965H120.129C120.186 69.965 120.231 69.9848 120.265 70.0245C120.305 70.0585 120.325 70.1038 120.325 70.1605V72.141C120.489 71.9313 120.682 71.7727 120.903 71.665C121.124 71.5517 121.398 71.495 121.727 71.495C122.271 71.495 122.693 71.6707 122.994 72.022C123.3 72.3677 123.453 72.8295 123.453 73.4075V75.8045C123.453 75.8612 123.433 75.9093 123.393 75.949C123.359 75.983 123.314 76 123.257 76H122.832C122.775 76 122.727 75.983 122.688 75.949C122.654 75.9093 122.637 75.8612 122.637 75.8045V73.45C122.637 73.0477 122.537 72.736 122.339 72.515C122.146 72.294 121.866 72.1835 121.498 72.1835C121.141 72.1835 120.854 72.2968 120.639 72.5235C120.429 72.7445 120.325 73.0533 120.325 73.45V75.8045C120.325 75.8612 120.305 75.9093 120.265 75.949C120.231 75.983 120.186 76 120.129 76H119.704Z" fill="#17447F"/>
<path d="M125.912 76.085C125.635 76.085 125.377 76.0283 125.139 75.915C124.901 75.8017 124.711 75.6487 124.569 75.456C124.433 75.2577 124.365 75.0395 124.365 74.8015C124.365 74.4275 124.518 74.1215 124.824 73.8835C125.136 73.6398 125.555 73.4812 126.082 73.4075L127.349 73.229V72.9825C127.349 72.4045 127.017 72.1155 126.354 72.1155C126.105 72.1155 125.901 72.1693 125.742 72.277C125.584 72.379 125.465 72.5008 125.385 72.6425C125.368 72.6935 125.346 72.7303 125.317 72.753C125.295 72.7757 125.261 72.787 125.215 72.787H124.85C124.799 72.787 124.753 72.77 124.714 72.736C124.68 72.6963 124.663 72.651 124.663 72.6C124.668 72.464 124.731 72.311 124.85 72.141C124.974 71.9653 125.164 71.8152 125.419 71.6905C125.674 71.5602 125.989 71.495 126.363 71.495C126.997 71.495 127.454 71.6452 127.731 71.9455C128.009 72.2402 128.148 72.6085 128.148 73.0505V75.8045C128.148 75.8612 128.128 75.9093 128.088 75.949C128.054 75.983 128.009 76 127.952 76H127.561C127.505 76 127.456 75.983 127.417 75.949C127.383 75.9093 127.366 75.8612 127.366 75.8045V75.439C127.241 75.6203 127.06 75.7733 126.822 75.898C126.584 76.0227 126.281 76.085 125.912 76.085ZM126.091 75.4475C126.459 75.4475 126.759 75.3285 126.992 75.0905C127.23 74.8468 127.349 74.4983 127.349 74.045V73.807L126.363 73.9515C125.96 74.0082 125.657 74.1045 125.453 74.2405C125.249 74.3708 125.147 74.538 125.147 74.742C125.147 74.9687 125.241 75.1443 125.428 75.269C125.615 75.388 125.836 75.4475 126.091 75.4475Z" fill="#17447F"/>
<path d="M130.985 76.085C130.395 76.085 129.951 75.8923 129.65 75.507C129.35 75.1217 129.191 74.6343 129.174 74.045L129.166 73.79L129.174 73.535C129.191 72.9513 129.35 72.4668 129.65 72.0815C129.951 71.6905 130.395 71.495 130.985 71.495C131.568 71.495 132.027 71.7018 132.362 72.1155V70.1605C132.362 70.1038 132.379 70.0585 132.413 70.0245C132.452 69.9848 132.501 69.965 132.557 69.965H132.965C133.022 69.965 133.067 69.9848 133.101 70.0245C133.141 70.0585 133.161 70.1038 133.161 70.1605V75.8045C133.161 75.8612 133.141 75.9093 133.101 75.949C133.067 75.983 133.022 76 132.965 76H132.583C132.526 76 132.478 75.983 132.438 75.949C132.404 75.9093 132.387 75.8612 132.387 75.8045V75.4475C132.059 75.8725 131.591 76.085 130.985 76.085ZM131.163 75.3965C131.554 75.3965 131.846 75.269 132.039 75.014C132.237 74.7533 132.345 74.4445 132.362 74.0875C132.367 74.0252 132.37 73.9175 132.37 73.7645C132.37 73.6058 132.367 73.4953 132.362 73.433C132.35 73.0987 132.243 72.8068 132.039 72.5575C131.835 72.3082 131.543 72.1835 131.163 72.1835C130.761 72.1835 130.466 72.3082 130.279 72.5575C130.098 72.8068 129.999 73.1355 129.982 73.5435L129.973 73.79C129.973 74.861 130.37 75.3965 131.163 75.3965Z" fill="#17447F"/>
<path d="M136.235 76.085C135.612 76.085 135.128 75.9093 134.782 75.558C134.442 75.2067 134.261 74.7392 134.238 74.1555L134.229 73.79L134.238 73.4245C134.261 72.8465 134.445 72.3818 134.79 72.0305C135.136 71.6735 135.618 71.495 136.235 71.495C136.853 71.495 137.335 71.6735 137.68 72.0305C138.026 72.3818 138.21 72.8465 138.233 73.4245C138.239 73.4868 138.241 73.6087 138.241 73.79C138.241 73.9713 138.239 74.0932 138.233 74.1555C138.21 74.7392 138.026 75.2067 137.68 75.558C137.34 75.9093 136.859 76.085 136.235 76.085ZM136.235 75.4305C136.592 75.4305 136.873 75.3172 137.077 75.0905C137.287 74.8638 137.4 74.538 137.417 74.113C137.423 74.0563 137.425 73.9487 137.425 73.79C137.425 73.6313 137.423 73.5237 137.417 73.467C137.4 73.042 137.287 72.7162 137.077 72.4895C136.873 72.2628 136.592 72.1495 136.235 72.1495C135.878 72.1495 135.595 72.2628 135.385 72.4895C135.176 72.7162 135.065 73.042 135.054 73.467L135.045 73.79L135.054 74.113C135.065 74.538 135.176 74.8638 135.385 75.0905C135.595 75.3172 135.878 75.4305 136.235 75.4305Z" fill="#17447F"/>
<path d="M143.157 76.085C142.574 76.085 142.106 75.9065 141.755 75.5495C141.409 75.1868 141.219 74.6938 141.185 74.0705L141.177 73.7815L141.185 73.501C141.225 72.889 141.418 72.4017 141.763 72.039C142.115 71.6763 142.576 71.495 143.149 71.495C143.778 71.495 144.265 71.6962 144.611 72.0985C144.956 72.4952 145.129 73.0335 145.129 73.7135V73.858C145.129 73.9147 145.109 73.9628 145.07 74.0025C145.036 74.0365 144.99 74.0535 144.934 74.0535H141.993V74.13C142.01 74.4983 142.12 74.8128 142.324 75.0735C142.534 75.3285 142.809 75.456 143.149 75.456C143.409 75.456 143.622 75.405 143.786 75.303C143.956 75.1953 144.081 75.0848 144.16 74.9715C144.211 74.9035 144.248 74.8638 144.271 74.8525C144.299 74.8355 144.347 74.827 144.415 74.827H144.832C144.883 74.827 144.925 74.8412 144.959 74.8695C144.993 74.8978 145.01 74.9375 145.01 74.9885C145.01 75.1132 144.931 75.2633 144.772 75.439C144.619 75.6147 144.401 75.7677 144.118 75.898C143.84 76.0227 143.52 76.085 143.157 76.085ZM144.322 73.467V73.4415C144.322 73.0505 144.214 72.7332 143.999 72.4895C143.789 72.2402 143.506 72.1155 143.149 72.1155C142.792 72.1155 142.508 72.2402 142.299 72.4895C142.095 72.7332 141.993 73.0505 141.993 73.4415V73.467H144.322Z" fill="#17447F"/>
<path d="M148.709 76C148.652 76 148.604 75.983 148.564 75.949C148.53 75.9093 148.513 75.8612 148.513 75.8045V72.26H147.791C147.734 72.26 147.686 72.243 147.646 72.209C147.612 72.1693 147.595 72.1212 147.595 72.0645V71.7755C147.595 71.7188 147.612 71.6735 147.646 71.6395C147.686 71.5998 147.734 71.58 147.791 71.58H148.513V71.155C148.513 70.1917 149.001 69.71 149.975 69.71H151.284C151.341 69.71 151.386 69.7298 151.42 69.7695C151.46 69.8035 151.48 69.8488 151.48 69.9055V70.1945C151.48 70.2512 151.46 70.2993 151.42 70.339C151.386 70.373 151.341 70.39 151.284 70.39H149.992C149.737 70.39 149.559 70.458 149.457 70.594C149.355 70.7243 149.304 70.9255 149.304 71.1975V71.58H151.284C151.341 71.58 151.386 71.5998 151.42 71.6395C151.46 71.6735 151.48 71.7188 151.48 71.7755V75.8045C151.48 75.8612 151.46 75.9093 151.42 75.949C151.386 75.983 151.341 76 151.284 76H150.893C150.837 76 150.789 75.983 150.749 75.949C150.715 75.9093 150.698 75.8612 150.698 75.8045V72.26H149.304V75.8045C149.304 75.8612 149.284 75.9093 149.244 75.949C149.21 75.983 149.165 76 149.108 76H148.709Z" fill="#17447F"/>
<path d="M154.266 76.085C153.87 76.085 153.535 76.0227 153.263 75.898C152.997 75.7677 152.796 75.6203 152.66 75.456C152.53 75.2917 152.464 75.1557 152.464 75.048C152.464 74.9913 152.484 74.9488 152.524 74.9205C152.569 74.8865 152.615 74.8695 152.66 74.8695H153.042C153.099 74.8695 153.15 74.8978 153.195 74.9545C153.331 75.1132 153.479 75.2378 153.637 75.3285C153.796 75.4192 154.009 75.4645 154.275 75.4645C154.57 75.4645 154.808 75.4078 154.989 75.2945C155.176 75.1755 155.269 75.014 155.269 74.81C155.269 74.674 155.23 74.5635 155.15 74.4785C155.077 74.3878 154.946 74.3113 154.759 74.249C154.578 74.181 154.306 74.1073 153.943 74.028C153.45 73.9203 153.099 73.7645 152.889 73.5605C152.685 73.3565 152.583 73.093 152.583 72.77C152.583 72.5547 152.646 72.3507 152.77 72.158C152.901 71.9597 153.088 71.801 153.331 71.682C153.581 71.5573 153.878 71.495 154.224 71.495C154.587 71.495 154.895 71.5545 155.15 71.6735C155.405 71.7925 155.595 71.9342 155.72 72.0985C155.85 72.2572 155.915 72.3903 155.915 72.498C155.915 72.549 155.896 72.5915 155.856 72.6255C155.822 72.6595 155.779 72.6765 155.728 72.6765H155.371C155.303 72.6765 155.247 72.6482 155.201 72.5915C155.111 72.4838 155.031 72.4017 154.963 72.345C154.901 72.2827 154.808 72.2288 154.683 72.1835C154.564 72.1382 154.411 72.1155 154.224 72.1155C153.952 72.1155 153.742 72.175 153.595 72.294C153.448 72.4073 153.374 72.5575 153.374 72.7445C153.374 72.8635 153.405 72.9655 153.467 73.0505C153.53 73.1298 153.649 73.2035 153.824 73.2715C154.006 73.3395 154.266 73.4103 154.606 73.484C155.145 73.5973 155.524 73.7617 155.745 73.977C155.972 74.1867 156.085 74.4558 156.085 74.7845C156.085 75.0282 156.015 75.2492 155.873 75.4475C155.731 75.6458 155.522 75.8017 155.244 75.915C154.972 76.0283 154.646 76.085 154.266 76.085Z" fill="#17447F"/>
<path d="M158.854 76.085C158.248 76.085 157.772 75.915 157.426 75.575C157.086 75.2293 156.905 74.7477 156.882 74.13L156.874 73.79L156.882 73.45C156.905 72.8323 157.086 72.3535 157.426 72.0135C157.772 71.6678 158.248 71.495 158.854 71.495C159.262 71.495 159.608 71.5687 159.891 71.716C160.175 71.8633 160.384 72.0447 160.52 72.26C160.662 72.4753 160.739 72.6907 160.75 72.906C160.756 72.9627 160.739 73.008 160.699 73.042C160.659 73.076 160.611 73.093 160.554 73.093H160.146C160.09 73.093 160.047 73.0817 160.019 73.059C159.991 73.0363 159.962 72.991 159.934 72.923C159.838 72.651 159.702 72.4583 159.526 72.345C159.35 72.226 159.129 72.1665 158.863 72.1665C158.512 72.1665 158.231 72.277 158.021 72.498C157.817 72.7133 157.707 73.0448 157.69 73.4925L157.681 73.7985L157.69 74.0875C157.707 74.5408 157.817 74.8752 158.021 75.0905C158.225 75.3058 158.506 75.4135 158.863 75.4135C159.129 75.4135 159.35 75.3568 159.526 75.2435C159.702 75.1245 159.838 74.929 159.934 74.657C159.962 74.589 159.991 74.5437 160.019 74.521C160.047 74.4927 160.09 74.4785 160.146 74.4785H160.554C160.611 74.4785 160.659 74.4983 160.699 74.538C160.739 74.572 160.756 74.6173 160.75 74.674C160.739 74.8837 160.662 75.099 160.52 75.32C160.384 75.5353 160.175 75.7167 159.891 75.864C159.614 76.0113 159.268 76.085 158.854 76.085Z" fill="#17447F"/>
<path d="M162.992 76.085C162.714 76.085 162.456 76.0283 162.218 75.915C161.98 75.8017 161.791 75.6487 161.649 75.456C161.513 75.2577 161.445 75.0395 161.445 74.8015C161.445 74.4275 161.598 74.1215 161.904 73.8835C162.216 73.6398 162.635 73.4812 163.162 73.4075L164.428 73.229V72.9825C164.428 72.4045 164.097 72.1155 163.434 72.1155C163.185 72.1155 162.981 72.1693 162.822 72.277C162.663 72.379 162.544 72.5008 162.465 72.6425C162.448 72.6935 162.425 72.7303 162.397 72.753C162.374 72.7757 162.34 72.787 162.295 72.787H161.929C161.878 72.787 161.833 72.77 161.793 72.736C161.759 72.6963 161.742 72.651 161.742 72.6C161.748 72.464 161.81 72.311 161.929 72.141C162.054 71.9653 162.244 71.8152 162.499 71.6905C162.754 71.5602 163.068 71.495 163.442 71.495C164.077 71.495 164.533 71.6452 164.811 71.9455C165.089 72.2402 165.227 72.6085 165.227 73.0505V75.8045C165.227 75.8612 165.208 75.9093 165.168 75.949C165.134 75.983 165.089 76 165.032 76H164.641C164.584 76 164.536 75.983 164.496 75.949C164.462 75.9093 164.445 75.8612 164.445 75.8045V75.439C164.321 75.6203 164.139 75.7733 163.901 75.898C163.663 76.0227 163.36 76.085 162.992 76.085ZM163.17 75.4475C163.539 75.4475 163.839 75.3285 164.071 75.0905C164.309 74.8468 164.428 74.4983 164.428 74.045V73.807L163.442 73.9515C163.04 74.0082 162.737 74.1045 162.533 74.2405C162.329 74.3708 162.227 74.538 162.227 74.742C162.227 74.9687 162.32 75.1443 162.507 75.269C162.694 75.388 162.915 75.4475 163.17 75.4475Z" fill="#17447F"/>
<path d="M166.653 76C166.597 76 166.549 75.983 166.509 75.949C166.475 75.9093 166.458 75.8612 166.458 75.8045V70.1605C166.458 70.1038 166.475 70.0585 166.509 70.0245C166.549 69.9848 166.597 69.965 166.653 69.965H167.053C167.109 69.965 167.155 69.9848 167.189 70.0245C167.228 70.0585 167.248 70.1038 167.248 70.1605V75.8045C167.248 75.8612 167.228 75.9093 167.189 75.949C167.155 75.983 167.109 76 167.053 76H166.653Z" fill="#17447F"/>
<path d="M168.644 70.7555C168.587 70.7555 168.539 70.7385 168.499 70.7045C168.465 70.6648 168.448 70.6167 168.448 70.56V70.101C168.448 70.0443 168.465 69.9962 168.499 69.9565C168.539 69.9168 168.587 69.897 168.644 69.897H169.179C169.236 69.897 169.284 69.9168 169.324 69.9565C169.363 69.9962 169.383 70.0443 169.383 70.101V70.56C169.383 70.6167 169.363 70.6648 169.324 70.7045C169.284 70.7385 169.236 70.7555 169.179 70.7555H168.644ZM168.712 76C168.655 76 168.607 75.983 168.567 75.949C168.533 75.9093 168.516 75.8612 168.516 75.8045V71.7755C168.516 71.7188 168.533 71.6735 168.567 71.6395C168.607 71.5998 168.655 71.58 168.712 71.58H169.12C169.176 71.58 169.222 71.5998 169.256 71.6395C169.295 71.6735 169.315 71.7188 169.315 71.7755V75.8045C169.315 75.8612 169.295 75.9093 169.256 75.949C169.222 75.983 169.176 76 169.12 76H168.712Z" fill="#17447F"/>
<path d="M170.49 76C170.433 76 170.385 75.983 170.345 75.949C170.311 75.9093 170.294 75.8612 170.294 75.8045V75.507C170.294 75.4617 170.306 75.4163 170.328 75.371C170.357 75.32 170.385 75.2747 170.413 75.235L172.759 72.2515H170.566C170.51 72.2515 170.461 72.2345 170.422 72.2005C170.388 72.1608 170.371 72.1127 170.371 72.056V71.7755C170.371 71.7188 170.388 71.6735 170.422 71.6395C170.461 71.5998 170.51 71.58 170.566 71.58H173.592C173.649 71.58 173.694 71.5998 173.728 71.6395C173.768 71.6735 173.788 71.7188 173.788 71.7755V72.09C173.788 72.1353 173.774 72.1807 173.745 72.226C173.723 72.2713 173.697 72.3138 173.669 72.3535L171.348 75.3285H173.762C173.825 75.3285 173.873 75.3455 173.907 75.3795C173.941 75.4135 173.958 75.4617 173.958 75.524V75.8045C173.958 75.8612 173.938 75.9093 173.898 75.949C173.864 75.983 173.819 76 173.762 76H170.49Z" fill="#17447F"/>
<path d="M176.132 76.085C175.854 76.085 175.597 76.0283 175.359 75.915C175.121 75.8017 174.931 75.6487 174.789 75.456C174.653 75.2577 174.585 75.0395 174.585 74.8015C174.585 74.4275 174.738 74.1215 175.044 73.8835C175.356 73.6398 175.775 73.4812 176.302 73.4075L177.569 73.229V72.9825C177.569 72.4045 177.237 72.1155 176.574 72.1155C176.325 72.1155 176.121 72.1693 175.962 72.277C175.803 72.379 175.684 72.5008 175.605 72.6425C175.588 72.6935 175.565 72.7303 175.537 72.753C175.514 72.7757 175.48 72.787 175.435 72.787H175.07C175.019 72.787 174.973 72.77 174.934 72.736C174.9 72.6963 174.883 72.651 174.883 72.6C174.888 72.464 174.951 72.311 175.07 72.141C175.194 71.9653 175.384 71.8152 175.639 71.6905C175.894 71.5602 176.209 71.495 176.583 71.495C177.217 71.495 177.673 71.6452 177.951 71.9455C178.229 72.2402 178.368 72.6085 178.368 73.0505V75.8045C178.368 75.8612 178.348 75.9093 178.308 75.949C178.274 75.983 178.229 76 178.172 76H177.781C177.724 76 177.676 75.983 177.637 75.949C177.603 75.9093 177.586 75.8612 177.586 75.8045V75.439C177.461 75.6203 177.28 75.7733 177.042 75.898C176.804 76.0227 176.5 76.085 176.132 76.085ZM176.311 75.4475C176.679 75.4475 176.979 75.3285 177.212 75.0905C177.45 74.8468 177.569 74.4983 177.569 74.045V73.807L176.583 73.9515C176.18 74.0082 175.877 74.1045 175.673 74.2405C175.469 74.3708 175.367 74.538 175.367 74.742C175.367 74.9687 175.461 75.1443 175.648 75.269C175.835 75.388 176.056 75.4475 176.311 75.4475Z" fill="#17447F"/>
<path d="M181.374 77.87C181.182 77.87 181.009 77.8303 180.856 77.751C180.709 77.6717 180.635 77.5923 180.635 77.513C180.635 77.4847 180.646 77.4592 180.669 77.4365L180.796 77.3175C180.825 77.2892 180.853 77.275 180.881 77.275C180.904 77.275 180.961 77.3033 181.051 77.36C181.136 77.4167 181.238 77.445 181.357 77.445C181.454 77.445 181.533 77.4167 181.595 77.36C181.663 77.3033 181.697 77.2268 181.697 77.1305C181.697 77.0455 181.663 76.9747 181.595 76.918C181.533 76.8613 181.454 76.833 181.357 76.833C181.289 76.833 181.216 76.8472 181.136 76.8755C181.057 76.8982 181.003 76.9095 180.975 76.9095C180.924 76.9095 180.884 76.8925 180.856 76.8585L180.711 76.7055C180.694 76.6828 180.686 76.6602 180.686 76.6375C180.686 76.6092 180.694 76.5752 180.711 76.5355C180.728 76.4958 180.74 76.4675 180.745 76.4505L180.915 76.0425C180.451 75.9688 180.085 75.7648 179.819 75.4305C179.558 75.0962 179.419 74.6627 179.402 74.13L179.394 73.79L179.402 73.45C179.425 72.8323 179.606 72.3535 179.946 72.0135C180.292 71.6678 180.768 71.495 181.374 71.495C181.782 71.495 182.128 71.5687 182.411 71.716C182.695 71.8633 182.904 72.0447 183.04 72.26C183.182 72.4753 183.259 72.6907 183.27 72.906C183.276 72.9627 183.259 73.008 183.219 73.042C183.179 73.076 183.131 73.093 183.074 73.093H182.666C182.61 73.093 182.567 73.0817 182.539 73.059C182.511 73.0363 182.482 72.991 182.454 72.923C182.358 72.651 182.222 72.4583 182.046 72.345C181.87 72.226 181.649 72.1665 181.383 72.1665C181.032 72.1665 180.751 72.277 180.541 72.498C180.337 72.7133 180.227 73.0448 180.21 73.4925L180.201 73.7985L180.21 74.0875C180.227 74.5408 180.337 74.8752 180.541 75.0905C180.745 75.3058 181.026 75.4135 181.383 75.4135C181.649 75.4135 181.87 75.3568 182.046 75.2435C182.222 75.1245 182.358 74.929 182.454 74.657C182.482 74.589 182.511 74.5437 182.539 74.521C182.567 74.4927 182.61 74.4785 182.666 74.4785H183.074C183.131 74.4785 183.179 74.4983 183.219 74.538C183.259 74.572 183.276 74.6173 183.27 74.674C183.259 74.8837 183.182 75.0962 183.04 75.3115C182.904 75.5268 182.695 75.711 182.411 75.864C182.134 76.0113 181.791 76.085 181.383 76.085L181.196 76.476C181.27 76.4307 181.374 76.408 181.51 76.408C181.703 76.408 181.859 76.4732 181.978 76.6035C182.103 76.7395 182.165 76.9123 182.165 77.122C182.165 77.3373 182.094 77.5158 181.952 77.6575C181.816 77.7992 181.624 77.87 181.374 77.87Z" fill="#17447F"/>
<path d="M185.512 76.085C185.234 76.085 184.976 76.0283 184.738 75.915C184.5 75.8017 184.311 75.6487 184.169 75.456C184.033 75.2577 183.965 75.0395 183.965 74.8015C183.965 74.4275 184.118 74.1215 184.424 73.8835C184.736 73.6398 185.155 73.4812 185.682 73.4075L186.948 73.229V72.9825C186.948 72.4045 186.617 72.1155 185.954 72.1155C185.705 72.1155 185.501 72.1693 185.342 72.277C185.183 72.379 185.064 72.5008 184.985 72.6425C184.968 72.6935 184.945 72.7303 184.917 72.753C184.894 72.7757 184.86 72.787 184.815 72.787H184.449C184.398 72.787 184.353 72.77 184.313 72.736C184.279 72.6963 184.262 72.651 184.262 72.6C184.268 72.464 184.33 72.311 184.449 72.141C184.574 71.9653 184.764 71.8152 185.019 71.6905C185.274 71.5602 185.588 71.495 185.962 71.495C186.597 71.495 187.053 71.6452 187.331 71.9455C187.609 72.2402 187.747 72.6085 187.747 73.0505V75.8045C187.747 75.8612 187.728 75.9093 187.688 75.949C187.654 75.983 187.609 76 187.552 76H187.161C187.104 76 187.056 75.983 187.016 75.949C186.982 75.9093 186.965 75.8612 186.965 75.8045V75.439C186.841 75.6203 186.659 75.7733 186.421 75.898C186.183 76.0227 185.88 76.085 185.512 76.085ZM185.69 75.4475C186.059 75.4475 186.359 75.3285 186.591 75.0905C186.829 74.8468 186.948 74.4983 186.948 74.045V73.807L185.962 73.9515C185.56 74.0082 185.257 74.1045 185.053 74.2405C184.849 74.3708 184.747 74.538 184.747 74.742C184.747 74.9687 184.84 75.1443 185.027 75.269C185.214 75.388 185.435 75.4475 185.69 75.4475ZM186.379 70.985C186.277 70.985 186.189 70.9708 186.115 70.9425C186.042 70.9142 185.96 70.8717 185.869 70.815C185.824 70.7867 185.775 70.7612 185.724 70.7385C185.673 70.7102 185.622 70.696 185.571 70.696C185.526 70.696 185.489 70.7045 185.461 70.7215C185.438 70.7385 185.418 70.7583 185.401 70.781C185.384 70.8037 185.373 70.8178 185.367 70.8235C185.322 70.9028 185.268 70.9425 185.206 70.9425H184.934C184.894 70.9425 184.86 70.9283 184.832 70.9C184.804 70.8717 184.789 70.8405 184.789 70.8065C184.789 70.6195 184.855 70.4467 184.985 70.288C185.115 70.1293 185.285 70.05 185.495 70.05C185.597 70.05 185.682 70.0642 185.75 70.0925C185.824 70.1208 185.911 70.1633 186.013 70.22C186.025 70.2257 186.062 70.2455 186.124 70.2795C186.186 70.3192 186.251 70.339 186.319 70.339C186.37 70.339 186.407 70.3277 186.43 70.305C186.458 70.2823 186.487 70.2483 186.515 70.203C186.538 70.1633 186.56 70.135 186.583 70.118C186.606 70.0953 186.637 70.084 186.676 70.084H186.948C186.994 70.084 187.028 70.0982 187.05 70.1265C187.079 70.1548 187.093 70.1888 187.093 70.2285C187.093 70.4098 187.025 70.5827 186.889 70.747C186.759 70.9057 186.589 70.985 186.379 70.985Z" fill="#17447F"/>
<path d="M190.78 76.085C190.157 76.085 189.672 75.9093 189.326 75.558C188.986 75.2067 188.805 74.7392 188.782 74.1555L188.774 73.79L188.782 73.4245C188.805 72.8465 188.989 72.3818 189.335 72.0305C189.681 71.6735 190.162 71.495 190.78 71.495C191.398 71.495 191.879 71.6735 192.225 72.0305C192.571 72.3818 192.755 72.8465 192.777 73.4245C192.783 73.4868 192.786 73.6087 192.786 73.79C192.786 73.9713 192.783 74.0932 192.777 74.1555C192.755 74.7392 192.571 75.2067 192.225 75.558C191.885 75.9093 191.403 76.085 190.78 76.085ZM190.78 75.4305C191.137 75.4305 191.417 75.3172 191.621 75.0905C191.831 74.8638 191.944 74.538 191.961 74.113C191.967 74.0563 191.97 73.9487 191.97 73.79C191.97 73.6313 191.967 73.5237 191.961 73.467C191.944 73.042 191.831 72.7162 191.621 72.4895C191.417 72.2628 191.137 72.1495 190.78 72.1495C190.423 72.1495 190.14 72.2628 189.93 72.4895C189.72 72.7162 189.61 73.042 189.598 73.467L189.59 73.79L189.598 74.113C189.61 74.538 189.72 74.8638 189.93 75.0905C190.14 75.3172 190.423 75.4305 190.78 75.4305Z" fill="#17447F"/>
<path d="M197.549 76.085C196.959 76.085 196.515 75.8923 196.214 75.507C195.914 75.1217 195.755 74.6343 195.738 74.045L195.73 73.79L195.738 73.535C195.755 72.9513 195.914 72.4668 196.214 72.0815C196.515 71.6905 196.959 71.495 197.549 71.495C198.132 71.495 198.591 71.7018 198.926 72.1155V70.1605C198.926 70.1038 198.943 70.0585 198.977 70.0245C199.016 69.9848 199.065 69.965 199.121 69.965H199.529C199.586 69.965 199.631 69.9848 199.665 70.0245C199.705 70.0585 199.725 70.1038 199.725 70.1605V75.8045C199.725 75.8612 199.705 75.9093 199.665 75.949C199.631 75.983 199.586 76 199.529 76H199.147C199.09 76 199.042 75.983 199.002 75.949C198.968 75.9093 198.951 75.8612 198.951 75.8045V75.4475C198.623 75.8725 198.155 76.085 197.549 76.085ZM197.727 75.3965C198.118 75.3965 198.41 75.269 198.603 75.014C198.801 74.7533 198.909 74.4445 198.926 74.0875C198.931 74.0252 198.934 73.9175 198.934 73.7645C198.934 73.6058 198.931 73.4953 198.926 73.433C198.914 73.0987 198.807 72.8068 198.603 72.5575C198.399 72.3082 198.107 72.1835 197.727 72.1835C197.325 72.1835 197.03 72.3082 196.843 72.5575C196.662 72.8068 196.563 73.1355 196.546 73.5435L196.537 73.79C196.537 74.861 196.934 75.3965 197.727 75.3965Z" fill="#17447F"/>
<path d="M202.757 76.085C202.173 76.085 201.706 75.9065 201.354 75.5495C201.009 75.1868 200.819 74.6938 200.785 74.0705L200.776 73.7815L200.785 73.501C200.825 72.889 201.017 72.4017 201.363 72.039C201.714 71.6763 202.176 71.495 202.748 71.495C203.377 71.495 203.865 71.6962 204.21 72.0985C204.556 72.4952 204.729 73.0335 204.729 73.7135V73.858C204.729 73.9147 204.709 73.9628 204.669 74.0025C204.635 74.0365 204.59 74.0535 204.533 74.0535H201.592V74.13C201.609 74.4983 201.72 74.8128 201.924 75.0735C202.134 75.3285 202.408 75.456 202.748 75.456C203.009 75.456 203.222 75.405 203.386 75.303C203.556 75.1953 203.681 75.0848 203.76 74.9715C203.811 74.9035 203.848 74.8638 203.87 74.8525C203.899 74.8355 203.947 74.827 204.015 74.827H204.431C204.482 74.827 204.525 74.8412 204.559 74.8695C204.593 74.8978 204.61 74.9375 204.61 74.9885C204.61 75.1132 204.531 75.2633 204.372 75.439C204.219 75.6147 204.001 75.7677 203.717 75.898C203.44 76.0227 203.12 76.085 202.757 76.085ZM203.921 73.467V73.4415C203.921 73.0505 203.814 72.7332 203.598 72.4895C203.389 72.2402 203.105 72.1155 202.748 72.1155C202.391 72.1155 202.108 72.2402 201.898 72.4895C201.694 72.7332 201.592 73.0505 201.592 73.4415V73.467H203.921Z" fill="#17447F"/>
<path d="M209.639 76.085C209.016 76.085 208.531 75.9093 208.186 75.558C207.846 75.2067 207.664 74.7392 207.642 74.1555L207.633 73.79L207.642 73.4245C207.664 72.8465 207.849 72.3818 208.194 72.0305C208.54 71.6735 209.022 71.495 209.639 71.495C210.257 71.495 210.739 71.6735 211.084 72.0305C211.43 72.3818 211.614 72.8465 211.637 73.4245C211.642 73.4868 211.645 73.6087 211.645 73.79C211.645 73.9713 211.642 74.0932 211.637 74.1555C211.614 74.7392 211.43 75.2067 211.084 75.558C210.744 75.9093 210.263 76.085 209.639 76.085ZM209.639 75.4305C209.996 75.4305 210.277 75.3172 210.481 75.0905C210.69 74.8638 210.804 74.538 210.821 74.113C210.826 74.0563 210.829 73.9487 210.829 73.79C210.829 73.6313 210.826 73.5237 210.821 73.467C210.804 73.042 210.69 72.7162 210.481 72.4895C210.277 72.2628 209.996 72.1495 209.639 72.1495C209.282 72.1495 208.999 72.2628 208.789 72.4895C208.58 72.7162 208.469 73.042 208.458 73.467L208.449 73.79L208.458 74.113C208.469 74.538 208.58 74.8638 208.789 75.0905C208.999 75.3172 209.282 75.4305 209.639 75.4305Z" fill="#17447F"/>
<path d="M214.894 76.085C214.282 76.085 213.817 75.8725 213.5 75.4475V75.8045C213.5 75.8612 213.48 75.9093 213.441 75.949C213.407 75.983 213.361 76 213.305 76H212.914C212.857 76 212.809 75.983 212.769 75.949C212.735 75.9093 212.718 75.8612 212.718 75.8045V70.1605C212.718 70.1038 212.735 70.0585 212.769 70.0245C212.809 69.9848 212.857 69.965 212.914 69.965H213.33C213.387 69.965 213.432 69.9848 213.466 70.0245C213.5 70.0585 213.517 70.1038 213.517 70.1605V72.1155C213.851 71.7018 214.31 71.495 214.894 71.495C215.483 71.495 215.928 71.6905 216.229 72.0815C216.529 72.4668 216.69 72.9513 216.713 73.535C216.719 73.5973 216.722 73.6823 216.722 73.79C216.722 73.8977 216.719 73.9827 216.713 74.045C216.69 74.6343 216.529 75.1217 216.229 75.507C215.928 75.8923 215.483 76.085 214.894 76.085ZM214.716 75.3965C215.118 75.3965 215.41 75.2718 215.591 75.0225C215.778 74.7732 215.88 74.4445 215.897 74.0365C215.903 73.9798 215.906 73.8977 215.906 73.79C215.906 72.719 215.509 72.1835 214.716 72.1835C214.336 72.1835 214.044 72.3082 213.84 72.5575C213.636 72.8068 213.528 73.0987 213.517 73.433L213.509 73.7645L213.517 74.0875C213.534 74.4445 213.639 74.7533 213.832 75.014C214.03 75.269 214.325 75.3965 214.716 75.3965Z" fill="#17447F"/>
<path d="M217.96 76C217.904 76 217.855 75.983 217.816 75.949C217.782 75.9093 217.765 75.8612 217.765 75.8045V71.784C217.765 71.7273 217.782 71.6792 217.816 71.6395C217.855 71.5998 217.904 71.58 217.96 71.58H218.351C218.408 71.58 218.456 71.5998 218.496 71.6395C218.535 71.6792 218.555 71.7273 218.555 71.784V72.158C218.788 71.7727 219.184 71.58 219.745 71.58H220.077C220.133 71.58 220.179 71.5998 220.213 71.6395C220.252 71.6735 220.272 71.7188 220.272 71.7755V72.124C220.272 72.1807 220.252 72.226 220.213 72.26C220.179 72.294 220.133 72.311 220.077 72.311H219.567C219.261 72.311 219.02 72.4017 218.844 72.583C218.669 72.7587 218.581 72.9995 218.581 73.3055V75.8045C218.581 75.8612 218.561 75.9093 218.521 75.949C218.482 75.983 218.433 76 218.377 76H217.96Z" fill="#17447F"/>
<path d="M222.16 76.085C221.882 76.085 221.624 76.0283 221.386 75.915C221.148 75.8017 220.959 75.6487 220.817 75.456C220.681 75.2577 220.613 75.0395 220.613 74.8015C220.613 74.4275 220.766 74.1215 221.072 73.8835C221.384 73.6398 221.803 73.4812 222.33 73.4075L223.596 73.229V72.9825C223.596 72.4045 223.265 72.1155 222.602 72.1155C222.353 72.1155 222.149 72.1693 221.99 72.277C221.831 72.379 221.712 72.5008 221.633 72.6425C221.616 72.6935 221.593 72.7303 221.565 72.753C221.542 72.7757 221.508 72.787 221.463 72.787H221.097C221.046 72.787 221.001 72.77 220.961 72.736C220.927 72.6963 220.91 72.651 220.91 72.6C220.916 72.464 220.978 72.311 221.097 72.141C221.222 71.9653 221.412 71.8152 221.667 71.6905C221.922 71.5602 222.236 71.495 222.61 71.495C223.245 71.495 223.701 71.6452 223.979 71.9455C224.257 72.2402 224.395 72.6085 224.395 73.0505V75.8045C224.395 75.8612 224.376 75.9093 224.336 75.949C224.302 75.983 224.257 76 224.2 76H223.809C223.752 76 223.704 75.983 223.664 75.949C223.63 75.9093 223.613 75.8612 223.613 75.8045V75.439C223.489 75.6203 223.307 75.7733 223.069 75.898C222.831 76.0227 222.528 76.085 222.16 76.085ZM222.338 75.4475C222.707 75.4475 223.007 75.3285 223.239 75.0905C223.477 74.8468 223.596 74.4983 223.596 74.045V73.807L222.61 73.9515C222.208 74.0082 221.905 74.1045 221.701 74.2405C221.497 74.3708 221.395 74.538 221.395 74.742C221.395 74.9687 221.488 75.1443 221.675 75.269C221.862 75.388 222.083 75.4475 222.338 75.4475Z" fill="#17447F"/>
</g>
</g>
</svg>
