<svg width="936" height="847" viewBox="0 0 936 847" fill="none" xmlns="http://www.w3.org/2000/svg">
<g id="Group 350">
<g id="xbox-logo" filter="url(#filter0_ddi_1401_2)">
<path d="M467.967 251.013C449.345 250.652 427.648 257.703 416.618 265.84C433.434 264.393 446.271 268.913 467.787 279.943C489.015 268.525 502.141 264.393 518.594 265.84C505.034 256.257 485.687 251.013 467.967 251.013Z" fill="#F7F7F7"/>
<path d="M441.208 304.894C424.032 288.441 409.873 277.174 399.803 278.858C369.97 303.809 355.687 365.284 390.582 407.774C384.616 384.269 412.279 341.236 441.208 304.894Z" fill="#F7F7F7"/>
<path d="M534.686 413.56C532.879 396.202 503.587 357.871 467.787 329.484C437.05 352.808 402.154 393.128 400.707 414.644C399.919 426.362 434.699 446.286 467.606 446.286C501.237 446.286 536.004 426.216 534.686 413.56Z" fill="#F7F7F7"/>
<path d="M493.282 304.894C510.458 288.441 524.616 277.174 534.687 278.858C564.52 303.809 578.803 365.284 543.908 407.774C549.874 384.269 522.211 341.236 493.282 304.894Z" fill="#F7F7F7"/>
<path d="M467.967 251.013C449.345 250.652 427.648 257.703 416.618 265.84C433.434 264.393 446.271 268.913 467.787 279.943C489.015 268.525 502.141 264.393 518.594 265.84C505.034 256.257 485.687 251.013 467.967 251.013Z" stroke="#F7F7F7" stroke-linecap="round" stroke-linejoin="round"/>
<path d="M441.208 304.894C424.032 288.441 409.873 277.174 399.803 278.858C369.97 303.809 355.687 365.284 390.582 407.774C384.616 384.269 412.279 341.236 441.208 304.894Z" stroke="#F7F7F7" stroke-linecap="round" stroke-linejoin="round"/>
<path d="M534.686 413.56C532.879 396.202 503.587 357.871 467.787 329.484C437.05 352.808 402.154 393.128 400.707 414.644C399.919 426.362 434.699 446.286 467.606 446.286C501.237 446.286 536.004 426.216 534.686 413.56Z" stroke="#F7F7F7" stroke-linecap="round" stroke-linejoin="round"/>
<path d="M493.282 304.894C510.458 288.441 524.616 277.174 534.687 278.858C564.52 303.809 578.803 365.284 543.908 407.774C549.874 384.269 522.211 341.236 493.282 304.894Z" stroke="#F7F7F7" stroke-linecap="round" stroke-linejoin="round"/>
</g>
<g id="xbox-x1" filter="url(#filter1_ddi_1401_2)">
<path d="M274.505 476.662H254.435L295.117 532.893L251 593.825H270.889L305.242 546.815L339.415 593.825H359.485L315.368 532.893L356.049 476.662H336.16L305.242 519.151L274.505 476.662Z" fill="#F7F7F7"/>
<path d="M274.505 476.662H254.435L295.117 532.893L251 593.825H270.889L305.242 546.815L339.415 593.825H359.485L315.368 532.893L356.049 476.662H336.16L305.242 519.151L274.505 476.662Z" stroke="#F7F7F7" stroke-linecap="round" stroke-linejoin="round"/>
</g>
<g id="xbox-x2" filter="url(#filter2_ddi_1401_2)">
<path d="M599.778 476.662H579.709L620.391 532.893L576.273 593.825H596.162L630.516 546.815L664.688 593.825H684.758L640.641 532.893L681.323 476.662H661.434L630.516 519.151L599.778 476.662Z" fill="#F7F7F7"/>
<path d="M599.778 476.662H579.709L620.391 532.893L576.273 593.825H596.162L630.516 546.815L664.688 593.825H684.758L640.641 532.893L681.323 476.662H661.434L630.516 519.151L599.778 476.662Z" stroke="#F7F7F7" stroke-linecap="round" stroke-linejoin="round"/>
</g>
<g id="xbox-b" filter="url(#filter3_ddi_1401_2)">
<path fill-rule="evenodd" clip-rule="evenodd" d="M343 541.5L353.5 527H369V477H423.5C463.5 477 468 521.5 443 533C474 543 469 594.5 427.5 594.5H369V541.5H343ZM387 527V492.5H423.5C447.5 492.5 445.5 527 423.5 527H387ZM387 578.5V542.5H426.5C451.5 542.5 451 578 426.5 578.5H387Z" fill="#F7F7F7"/>
<path fill-rule="evenodd" clip-rule="evenodd" d="M343 541.5L353.5 527H369V477H423.5C463.5 477 468 521.5 443 533C474 543 469 594.5 427.5 594.5H369V541.5H343ZM387 527V492.5H423.5C447.5 492.5 445.5 527 423.5 527H387ZM387 578.5V542.5H426.5C451.5 542.5 451 578 426.5 578.5H387Z" stroke="#F7F7F7" stroke-linecap="round" stroke-linejoin="round"/>
</g>
<g id="xbox-o" filter="url(#filter4_ddi_1401_2)">
<path fill-rule="evenodd" clip-rule="evenodd" d="M469 534.5C470 489.5 500 473 528 473C558.5 473.5 584 494.5 584 534.5C583 580.5 553.5 595 528 596C484.5 595 470 563.5 469 534.5ZM528 489C507 487.923 488 501 487 534.5C487.5 559.5 499 579 528 579.5C550.5 577.5 564 561.5 564.5 534.5C564.5 504.5 547.5 490 528 489Z" fill="#F7F7F7"/>
<path fill-rule="evenodd" clip-rule="evenodd" d="M469 534.5C470 489.5 500 473 528 473C558.5 473.5 584 494.5 584 534.5C583 580.5 553.5 595 528 596C484.5 595 470 563.5 469 534.5ZM528 489C507 487.923 488 501 487 534.5C487.5 559.5 499 579 528 579.5C550.5 577.5 564 561.5 564.5 534.5C564.5 504.5 547.5 490 528 489Z" stroke="#F7F7F7"/>
</g>
</g>
<defs>
<filter id="filter0_ddi_1401_2" x="119.643" y="0.5" width="695.205" height="696.286" filterUnits="userSpaceOnUse" color-interpolation-filters="sRGB">
<feFlood flood-opacity="0" result="BackgroundImageFix"/>
<feColorMatrix in="SourceAlpha" type="matrix" values="0 0 0 0 0 0 0 0 0 0 0 0 0 0 0 0 0 0 127 0" result="hardAlpha"/>
<feOffset dy="3"/>
<feGaussianBlur stdDeviation="7.5"/>
<feColorMatrix type="matrix" values="0 0 0 0 0 0 0 0 0 0 0 0 0 0 0 0 0 0 0.95 0"/>
<feBlend mode="normal" in2="BackgroundImageFix" result="effect1_dropShadow_1401_2"/>
<feColorMatrix in="SourceAlpha" type="matrix" values="0 0 0 0 0 0 0 0 0 0 0 0 0 0 0 0 0 0 127 0" result="hardAlpha"/>
<feOffset/>
<feGaussianBlur stdDeviation="125"/>
<feColorMatrix type="matrix" values="0 0 0 0 0.968627 0 0 0 0 0.968627 0 0 0 0 0.968627 0 0 0 0.6 0"/>
<feBlend mode="normal" in2="effect1_dropShadow_1401_2" result="effect2_dropShadow_1401_2"/>
<feBlend mode="normal" in="SourceGraphic" in2="effect2_dropShadow_1401_2" result="shape"/>
<feColorMatrix in="SourceAlpha" type="matrix" values="0 0 0 0 0 0 0 0 0 0 0 0 0 0 0 0 0 0 127 0" result="hardAlpha"/>
<feOffset dy="-3"/>
<feGaussianBlur stdDeviation="3.5"/>
<feComposite in2="hardAlpha" operator="arithmetic" k2="-1" k3="1"/>
<feColorMatrix type="matrix" values="0 0 0 0 0.729167 0 0 0 0 0.729167 0 0 0 0 0.729167 0 0 0 0.7 0"/>
<feBlend mode="normal" in2="shape" result="effect3_innerShadow_1401_2"/>
</filter>
<filter id="filter1_ddi_1401_2" x="0.5" y="226.162" width="609.485" height="618.164" filterUnits="userSpaceOnUse" color-interpolation-filters="sRGB">
<feFlood flood-opacity="0" result="BackgroundImageFix"/>
<feColorMatrix in="SourceAlpha" type="matrix" values="0 0 0 0 0 0 0 0 0 0 0 0 0 0 0 0 0 0 127 0" result="hardAlpha"/>
<feOffset dy="3"/>
<feGaussianBlur stdDeviation="7.5"/>
<feColorMatrix type="matrix" values="0 0 0 0 0 0 0 0 0 0 0 0 0 0 0 0 0 0 0.7 0"/>
<feBlend mode="normal" in2="BackgroundImageFix" result="effect1_dropShadow_1401_2"/>
<feColorMatrix in="SourceAlpha" type="matrix" values="0 0 0 0 0 0 0 0 0 0 0 0 0 0 0 0 0 0 127 0" result="hardAlpha"/>
<feOffset/>
<feGaussianBlur stdDeviation="125"/>
<feColorMatrix type="matrix" values="0 0 0 0 0.968627 0 0 0 0 0.968627 0 0 0 0 0.968627 0 0 0 0.3 0"/>
<feBlend mode="normal" in2="effect1_dropShadow_1401_2" result="effect2_dropShadow_1401_2"/>
<feBlend mode="normal" in="SourceGraphic" in2="effect2_dropShadow_1401_2" result="shape"/>
<feColorMatrix in="SourceAlpha" type="matrix" values="0 0 0 0 0 0 0 0 0 0 0 0 0 0 0 0 0 0 127 0" result="hardAlpha"/>
<feOffset dy="-3"/>
<feGaussianBlur stdDeviation="3.5"/>
<feComposite in2="hardAlpha" operator="arithmetic" k2="-1" k3="1"/>
<feColorMatrix type="matrix" values="0 0 0 0 0.729412 0 0 0 0 0.729412 0 0 0 0 0.729412 0 0 0 0.7 0"/>
<feBlend mode="normal" in2="shape" result="effect3_innerShadow_1401_2"/>
</filter>
<filter id="filter2_ddi_1401_2" x="325.773" y="226.162" width="609.485" height="618.164" filterUnits="userSpaceOnUse" color-interpolation-filters="sRGB">
<feFlood flood-opacity="0" result="BackgroundImageFix"/>
<feColorMatrix in="SourceAlpha" type="matrix" values="0 0 0 0 0 0 0 0 0 0 0 0 0 0 0 0 0 0 127 0" result="hardAlpha"/>
<feOffset dy="3"/>
<feGaussianBlur stdDeviation="7.5"/>
<feColorMatrix type="matrix" values="0 0 0 0 0 0 0 0 0 0 0 0 0 0 0 0 0 0 0.7 0"/>
<feBlend mode="normal" in2="BackgroundImageFix" result="effect1_dropShadow_1401_2"/>
<feColorMatrix in="SourceAlpha" type="matrix" values="0 0 0 0 0 0 0 0 0 0 0 0 0 0 0 0 0 0 127 0" result="hardAlpha"/>
<feOffset/>
<feGaussianBlur stdDeviation="125"/>
<feColorMatrix type="matrix" values="0 0 0 0 0.968627 0 0 0 0 0.968627 0 0 0 0 0.968627 0 0 0 0.3 0"/>
<feBlend mode="normal" in2="effect1_dropShadow_1401_2" result="effect2_dropShadow_1401_2"/>
<feBlend mode="normal" in="SourceGraphic" in2="effect2_dropShadow_1401_2" result="shape"/>
<feColorMatrix in="SourceAlpha" type="matrix" values="0 0 0 0 0 0 0 0 0 0 0 0 0 0 0 0 0 0 127 0" result="hardAlpha"/>
<feOffset dy="-3"/>
<feGaussianBlur stdDeviation="3.5"/>
<feComposite in2="hardAlpha" operator="arithmetic" k2="-1" k3="1"/>
<feColorMatrix type="matrix" values="0 0 0 0 0.729412 0 0 0 0 0.729412 0 0 0 0 0.729412 0 0 0 0.7 0"/>
<feBlend mode="normal" in2="shape" result="effect3_innerShadow_1401_2"/>
</filter>
<filter id="filter3_ddi_1401_2" x="92.5" y="226.5" width="620.98" height="618.5" filterUnits="userSpaceOnUse" color-interpolation-filters="sRGB">
<feFlood flood-opacity="0" result="BackgroundImageFix"/>
<feColorMatrix in="SourceAlpha" type="matrix" values="0 0 0 0 0 0 0 0 0 0 0 0 0 0 0 0 0 0 127 0" result="hardAlpha"/>
<feOffset dy="3"/>
<feGaussianBlur stdDeviation="7.5"/>
<feColorMatrix type="matrix" values="0 0 0 0 0 0 0 0 0 0 0 0 0 0 0 0 0 0 0.7 0"/>
<feBlend mode="normal" in2="BackgroundImageFix" result="effect1_dropShadow_1401_2"/>
<feColorMatrix in="SourceAlpha" type="matrix" values="0 0 0 0 0 0 0 0 0 0 0 0 0 0 0 0 0 0 127 0" result="hardAlpha"/>
<feOffset/>
<feGaussianBlur stdDeviation="125"/>
<feColorMatrix type="matrix" values="0 0 0 0 1 0 0 0 0 1 0 0 0 0 1 0 0 0 0.3 0"/>
<feBlend mode="normal" in2="effect1_dropShadow_1401_2" result="effect2_dropShadow_1401_2"/>
<feBlend mode="normal" in="SourceGraphic" in2="effect2_dropShadow_1401_2" result="shape"/>
<feColorMatrix in="SourceAlpha" type="matrix" values="0 0 0 0 0 0 0 0 0 0 0 0 0 0 0 0 0 0 127 0" result="hardAlpha"/>
<feOffset dy="-3"/>
<feGaussianBlur stdDeviation="3.5"/>
<feComposite in2="hardAlpha" operator="arithmetic" k2="-1" k3="1"/>
<feColorMatrix type="matrix" values="0 0 0 0 0.729412 0 0 0 0 0.729412 0 0 0 0 0.729412 0 0 0 0.7 0"/>
<feBlend mode="normal" in2="shape" result="effect3_innerShadow_1401_2"/>
</filter>
<filter id="filter4_ddi_1401_2" x="218.5" y="222.5" width="616" height="624" filterUnits="userSpaceOnUse" color-interpolation-filters="sRGB">
<feFlood flood-opacity="0" result="BackgroundImageFix"/>
<feColorMatrix in="SourceAlpha" type="matrix" values="0 0 0 0 0 0 0 0 0 0 0 0 0 0 0 0 0 0 127 0" result="hardAlpha"/>
<feOffset dy="3"/>
<feGaussianBlur stdDeviation="7.5"/>
<feColorMatrix type="matrix" values="0 0 0 0 0 0 0 0 0 0 0 0 0 0 0 0 0 0 0.7 0"/>
<feBlend mode="normal" in2="BackgroundImageFix" result="effect1_dropShadow_1401_2"/>
<feColorMatrix in="SourceAlpha" type="matrix" values="0 0 0 0 0 0 0 0 0 0 0 0 0 0 0 0 0 0 127 0" result="hardAlpha"/>
<feOffset/>
<feGaussianBlur stdDeviation="125"/>
<feColorMatrix type="matrix" values="0 0 0 0 1 0 0 0 0 1 0 0 0 0 1 0 0 0 0.3 0"/>
<feBlend mode="normal" in2="effect1_dropShadow_1401_2" result="effect2_dropShadow_1401_2"/>
<feBlend mode="normal" in="SourceGraphic" in2="effect2_dropShadow_1401_2" result="shape"/>
<feColorMatrix in="SourceAlpha" type="matrix" values="0 0 0 0 0 0 0 0 0 0 0 0 0 0 0 0 0 0 127 0" result="hardAlpha"/>
<feOffset dy="-3"/>
<feGaussianBlur stdDeviation="3.5"/>
<feComposite in2="hardAlpha" operator="arithmetic" k2="-1" k3="1"/>
<feColorMatrix type="matrix" values="0 0 0 0 0.729412 0 0 0 0 0.729412 0 0 0 0 0.729412 0 0 0 0.7 0"/>
<feBlend mode="normal" in2="shape" result="effect3_innerShadow_1401_2"/>
</filter>
</defs>
</svg>
