<svg width="436" height="347" viewBox="0 0 436 347" fill="none" xmlns="http://www.w3.org/2000/svg">
<g id="Group 351">
<g id="xbox-logo">
<path d="M217.967 1.01332C199.345 0.6518 177.648 7.70321 166.618 15.8396C183.434 14.3931 196.271 18.9133 217.787 29.9426C239.015 18.5253 252.141 14.3932 268.594 15.8396C255.034 6.25684 235.687 1.01332 217.967 1.01332Z" fill="#F7F7F7"/>
<path d="M191.208 54.894C174.032 38.4405 159.873 27.1742 149.803 28.8577C119.97 53.8092 105.687 115.284 140.582 157.774C134.616 134.269 162.279 91.2364 191.208 54.894Z" fill="#F7F7F7"/>
<path d="M284.686 163.56C282.879 146.202 253.587 107.871 217.787 79.4839C187.05 102.808 152.154 143.128 150.707 164.644C149.919 176.362 184.699 196.286 217.606 196.286C251.237 196.286 286.004 176.216 284.686 163.56Z" fill="#F7F7F7"/>
<path d="M243.282 54.894C260.458 38.4405 274.616 27.1742 284.687 28.8577C314.52 53.8092 328.803 115.284 293.908 157.774C299.874 134.269 272.211 91.2364 243.282 54.894Z" fill="#F7F7F7"/>
<path d="M217.967 1.01332C199.345 0.6518 177.648 7.70321 166.618 15.8396C183.434 14.3931 196.271 18.9133 217.787 29.9426C239.015 18.5253 252.141 14.3932 268.594 15.8396C255.034 6.25684 235.687 1.01332 217.967 1.01332Z" stroke="#F7F7F7" stroke-linecap="round" stroke-linejoin="round"/>
<path d="M191.208 54.894C174.032 38.4405 159.873 27.1742 149.803 28.8577C119.97 53.8092 105.687 115.284 140.582 157.774C134.616 134.269 162.279 91.2364 191.208 54.894Z" stroke="#F7F7F7" stroke-linecap="round" stroke-linejoin="round"/>
<path d="M284.686 163.56C282.879 146.202 253.587 107.871 217.787 79.4839C187.05 102.808 152.154 143.128 150.707 164.644C149.919 176.362 184.699 196.286 217.606 196.286C251.237 196.286 286.004 176.216 284.686 163.56Z" stroke="#F7F7F7" stroke-linecap="round" stroke-linejoin="round"/>
<path d="M243.282 54.894C260.458 38.4405 274.616 27.1742 284.687 28.8577C314.52 53.8092 328.803 115.284 293.908 157.774C299.874 134.269 272.211 91.2364 243.282 54.894Z" stroke="#F7F7F7" stroke-linecap="round" stroke-linejoin="round"/>
</g>
<path id="xbox-x1" d="M24.505 226.662H4.43535L45.1171 282.893L1 343.825H20.8889L55.2423 296.815L89.415 343.825H109.485L65.3676 282.893L106.049 226.662H86.1605L55.2423 269.151L24.505 226.662Z" fill="#F7F7F7" stroke="#F7F7F7" stroke-linecap="round" stroke-linejoin="round"/>
<path id="xbox-x2" d="M349.778 226.662H329.709L370.391 282.893L326.273 343.825H346.162L380.516 296.815L414.688 343.825H434.758L390.641 282.893L431.323 226.662H411.434L380.516 269.151L349.778 226.662Z" fill="#F7F7F7" stroke="#F7F7F7" stroke-linecap="round" stroke-linejoin="round"/>
<path id="xbox-b" fill-rule="evenodd" clip-rule="evenodd" d="M93 291.5L103.5 277H119V227H173.5C213.5 227 218 271.5 193 283C224 293 219 344.5 177.5 344.5H119V291.5H93ZM137 277V242.5H173.5C197.5 242.5 195.5 277 173.5 277H137ZM137 328.5V292.5H176.5C201.5 292.5 201 328 176.5 328.5H137Z" fill="#F7F7F7" stroke="#F7F7F7" stroke-linecap="round" stroke-linejoin="round"/>
<path id="xbox-o" fill-rule="evenodd" clip-rule="evenodd" d="M219 284.5C220 239.5 250 223 278 223C308.5 223.5 334 244.5 334 284.5C333 330.5 303.5 345 278 346C234.5 345 220 313.5 219 284.5ZM278 239C257 237.923 238 251 237 284.5C237.5 309.5 249 329 278 329.5C300.5 327.5 314 311.5 314.5 284.5C314.5 254.5 297.5 240 278 239Z" fill="#F7F7F7" stroke="#F7F7F7"/>
</g>
</svg>
